<svg width="433" height="260" xmlns="http://www.w3.org/2000/svg" xmlns:xlink="http://www.w3.org/1999/xlink" overflow="hidden"><defs><clipPath id="clip0"><rect x="277" y="610" width="433" height="260"/></clipPath><linearGradient x1="320.25" y1="566.75" x2="666.75" y2="913.25" gradientUnits="userSpaceOnUse" spreadMethod="reflect" id="fill1"><stop offset="0" stop-color="#33CC33"/><stop offset="0.00990099" stop-color="#32CB34"/><stop offset="0.019802" stop-color="#32CB36"/><stop offset="0.029703" stop-color="#32CB38"/><stop offset="0.039604" stop-color="#32CB3A"/><stop offset="0.049505" stop-color="#32CB3C"/><stop offset="0.0594059" stop-color="#32CB3E"/><stop offset="0.0693069" stop-color="#32CB3F"/><stop offset="0.0792079" stop-color="#32CB41"/><stop offset="0.0891089" stop-color="#32CB43"/><stop offset="0.0990099" stop-color="#32CB45"/><stop offset="0.108911" stop-color="#32CB46"/><stop offset="0.118812" stop-color="#32CB48"/><stop offset="0.128713" stop-color="#31CA4A"/><stop offset="0.138614" stop-color="#31CA4B"/><stop offset="0.148515" stop-color="#31CA4D"/><stop offset="0.158416" stop-color="#31CA4F"/><stop offset="0.168317" stop-color="#31CA50"/><stop offset="0.178218" stop-color="#30C952"/><stop offset="0.188119" stop-color="#30C953"/><stop offset="0.19802" stop-color="#30C955"/><stop offset="0.207921" stop-color="#30C957"/><stop offset="0.217822" stop-color="#30C958"/><stop offset="0.227723" stop-color="#2FC85A"/><stop offset="0.237624" stop-color="#2FC85B"/><stop offset="0.247525" stop-color="#2FC85D"/><stop offset="0.257426" stop-color="#2EC75E"/><stop offset="0.267327" stop-color="#2EC760"/><stop offset="0.277228" stop-color="#2EC761"/><stop offset="0.287129" stop-color="#2EC762"/><stop offset="0.29703" stop-color="#2DC664"/><stop offset="0.306931" stop-color="#2DC665"/><stop offset="0.316832" stop-color="#2DC667"/><stop offset="0.326733" stop-color="#2CC568"/><stop offset="0.336634" stop-color="#2CC569"/><stop offset="0.346535" stop-color="#2CC56B"/><stop offset="0.356436" stop-color="#2BC46C"/><stop offset="0.366337" stop-color="#2BC46D"/><stop offset="0.376238" stop-color="#2AC36E"/><stop offset="0.386139" stop-color="#2AC370"/><stop offset="0.39604" stop-color="#2AC371"/><stop offset="0.405941" stop-color="#29C272"/><stop offset="0.415842" stop-color="#29C273"/><stop offset="0.425743" stop-color="#28C174"/><stop offset="0.435644" stop-color="#28C176"/><stop offset="0.445545" stop-color="#27C077"/><stop offset="0.455446" stop-color="#27C078"/><stop offset="0.465347" stop-color="#26BF79"/><stop offset="0.475248" stop-color="#26BF7A"/><stop offset="0.485149" stop-color="#25BE7B"/><stop offset="0.49505" stop-color="#25BE7C"/><stop offset="0.504951" stop-color="#24BD7D"/><stop offset="0.514852" stop-color="#24BD7E"/><stop offset="0.524752" stop-color="#23BC7F"/><stop offset="0.534653" stop-color="#23BC80"/><stop offset="0.544554" stop-color="#22BB81"/><stop offset="0.554455" stop-color="#22BB82"/><stop offset="0.564356" stop-color="#21BA83"/><stop offset="0.574257" stop-color="#20B984"/><stop offset="0.584158" stop-color="#20B985"/><stop offset="0.594059" stop-color="#1FB886"/><stop offset="0.60396" stop-color="#1FB887"/><stop offset="0.613861" stop-color="#1EB787"/><stop offset="0.623762" stop-color="#1DB688"/><stop offset="0.633663" stop-color="#1DB689"/><stop offset="0.643564" stop-color="#1CB58A"/><stop offset="0.653465" stop-color="#1CB58B"/><stop offset="0.663366" stop-color="#1BB48B"/><stop offset="0.673267" stop-color="#1AB38C"/><stop offset="0.683168" stop-color="#1AB38D"/><stop offset="0.693069" stop-color="#19B28D"/><stop offset="0.70297" stop-color="#18B18E"/><stop offset="0.712871" stop-color="#17B08F"/><stop offset="0.722772" stop-color="#17B08F"/><stop offset="0.732673" stop-color="#16AF90"/><stop offset="0.742574" stop-color="#15AE90"/><stop offset="0.752475" stop-color="#15AE91"/><stop offset="0.762376" stop-color="#14AD92"/><stop offset="0.772277" stop-color="#13AC92"/><stop offset="0.782178" stop-color="#12AB93"/><stop offset="0.792079" stop-color="#12AB93"/><stop offset="0.80198" stop-color="#11AA94"/><stop offset="0.811881" stop-color="#10A994"/><stop offset="0.821782" stop-color="#0FA894"/><stop offset="0.831683" stop-color="#0EA795"/><stop offset="0.841584" stop-color="#0EA795"/><stop offset="0.851485" stop-color="#0DA696"/><stop offset="0.861386" stop-color="#0CA596"/><stop offset="0.871287" stop-color="#0BA496"/><stop offset="0.881188" stop-color="#0AA397"/><stop offset="0.891089" stop-color="#09A297"/><stop offset="0.90099" stop-color="#09A297"/><stop offset="0.910891" stop-color="#08A197"/><stop offset="0.920792" stop-color="#07A098"/><stop offset="0.930693" stop-color="#069F98"/><stop offset="0.940594" stop-color="#059E98"/><stop offset="0.950495" stop-color="#049D98"/><stop offset="0.960396" stop-color="#039C98"/><stop offset="0.970297" stop-color="#029B98"/><stop offset="0.980198" stop-color="#019A98"/><stop offset="0.990099" stop-color="#009998"/><stop offset="1" stop-color="#009999"/></linearGradient></defs><g clip-path="url(#clip0)" transform="translate(-277 -610)"><path d="M277 672.252C277 637.871 304.871 610 339.252 610L647.748 610C682.129 610 710 637.871 710 672.252L710 807.748C710 842.129 682.129 870 647.748 870L339.252 870C304.871 870 277 842.129 277 807.748Z" fill="url(#fill1)" fill-rule="evenodd"/><path d="M560.927 675C573.086 675 583.633 677.608 592.57 682.824 601.507 688.039 608.164 694.832 612.541 703.202L589.561 719.213C587.615 714.604 585.032 711.025 581.81 708.478 578.588 705.931 575.062 704.141 571.232 703.111 567.402 702.08 563.724 701.564 560.198 701.564 554.483 701.564 549.498 702.686 545.243 704.93 540.987 707.174 537.461 710.176 534.665 713.936 531.868 717.697 529.801 721.881 528.464 726.491 527.126 731.1 526.458 735.709 526.458 740.318 526.458 745.412 527.248 750.325 528.828 755.056 530.409 759.786 532.689 763.971 535.667 767.61 538.647 771.249 542.264 774.13 546.519 776.252 550.775 778.375 555.456 779.436 560.562 779.436 564.21 779.436 567.918 778.83 571.688 777.617 575.457 776.404 578.952 774.493 582.175 771.886 585.396 769.278 587.859 765.851 589.561 761.606L614 775.979C611.446 782.287 607.252 787.684 601.416 792.173 595.579 796.66 588.983 800.087 581.627 802.452 574.271 804.818 567.007 806 559.833 806 550.471 806 541.868 804.09 534.026 800.269 526.184 796.448 519.436 791.354 513.782 784.986 508.128 778.617 503.751 771.461 500.651 763.516 497.55 755.571 496 747.475 496 739.226 496 731.342 497.459 723.61 500.377 716.029 503.295 708.448 507.551 701.564 513.144 695.378 518.737 689.192 525.546 684.249 533.57 680.549 541.595 676.85 550.714 675 560.927 675Z" fill="#FFFFFF" fill-rule="evenodd"/><path d="M412.512 676 444.67 676 489 805 458.478 805 449.734 776.111 407.269 776.111 398.523 805 368 805 412.512 676ZM428.5 705.979 413.483 755.581 443.52 755.581 428.5 705.979Z" fill="#FFFFFF" fill-rule="evenodd"/></g></svg>