<svg width="433" height="260" xmlns="http://www.w3.org/2000/svg" xmlns:xlink="http://www.w3.org/1999/xlink" overflow="hidden"><defs><clipPath id="clip0"><rect x="277" y="610" width="433" height="260"/></clipPath><linearGradient x1="320.25" y1="566.75" x2="666.75" y2="913.25" gradientUnits="userSpaceOnUse" spreadMethod="reflect" id="fill1"><stop offset="0" stop-color="#8BCD43"/><stop offset="0.00724638" stop-color="#8ACC44"/><stop offset="0.0144928" stop-color="#8ACC46"/><stop offset="0.0217391" stop-color="#8ACC48"/><stop offset="0.0289855" stop-color="#8ACC49"/><stop offset="0.0362319" stop-color="#8ACC4B"/><stop offset="0.0434783" stop-color="#8ACC4D"/><stop offset="0.0507246" stop-color="#8ACC4E"/><stop offset="0.057971" stop-color="#8ACC50"/><stop offset="0.0652174" stop-color="#8ACC52"/><stop offset="0.0724638" stop-color="#89CC53"/><stop offset="0.0797101" stop-color="#89CC55"/><stop offset="0.0869565" stop-color="#89CC57"/><stop offset="0.0942029" stop-color="#89CC58"/><stop offset="0.101449" stop-color="#89CC5A"/><stop offset="0.108696" stop-color="#88CC5B"/><stop offset="0.115942" stop-color="#88CC5D"/><stop offset="0.123188" stop-color="#88CC5E"/><stop offset="0.130435" stop-color="#87CC60"/><stop offset="0.137681" stop-color="#87CC62"/><stop offset="0.144928" stop-color="#87CC63"/><stop offset="0.152174" stop-color="#86CC65"/><stop offset="0.15942" stop-color="#86CC66"/><stop offset="0.166667" stop-color="#86CC68"/><stop offset="0.173913" stop-color="#85CC69"/><stop offset="0.181159" stop-color="#85CC6B"/><stop offset="0.188406" stop-color="#84CC6C"/><stop offset="0.195652" stop-color="#84CC6D"/><stop offset="0.202899" stop-color="#84CC6F"/><stop offset="0.210145" stop-color="#83CC70"/><stop offset="0.217391" stop-color="#83CC72"/><stop offset="0.224638" stop-color="#82CC73"/><stop offset="0.231884" stop-color="#82CC74"/><stop offset="0.23913" stop-color="#81CC76"/><stop offset="0.246377" stop-color="#80CC77"/><stop offset="0.253623" stop-color="#80CC79"/><stop offset="0.26087" stop-color="#7FCC7A"/><stop offset="0.268116" stop-color="#7FCC7B"/><stop offset="0.275362" stop-color="#7ECC7D"/><stop offset="0.282609" stop-color="#7DCC7E"/><stop offset="0.289855" stop-color="#7DCC7F"/><stop offset="0.297101" stop-color="#7CCC80"/><stop offset="0.304348" stop-color="#7CCC82"/><stop offset="0.311594" stop-color="#7BCC83"/><stop offset="0.318841" stop-color="#7ACC84"/><stop offset="0.326087" stop-color="#79CC85"/><stop offset="0.333333" stop-color="#79CC87"/><stop offset="0.34058" stop-color="#78CC88"/><stop offset="0.347826" stop-color="#77CC89"/><stop offset="0.355072" stop-color="#77CC8A"/><stop offset="0.362319" stop-color="#76CC8B"/><stop offset="0.369565" stop-color="#75CC8D"/><stop offset="0.376812" stop-color="#74CC8E"/><stop offset="0.384058" stop-color="#73CC8F"/><stop offset="0.391304" stop-color="#73CC90"/><stop offset="0.398551" stop-color="#72CC91"/><stop offset="0.405797" stop-color="#71CC92"/><stop offset="0.413043" stop-color="#70CC93"/><stop offset="0.42029" stop-color="#6FCC94"/><stop offset="0.427536" stop-color="#6ECB96"/><stop offset="0.434783" stop-color="#6DCB97"/><stop offset="0.442029" stop-color="#6CCB98"/><stop offset="0.449275" stop-color="#6BCB99"/><stop offset="0.456522" stop-color="#6BCB9A"/><stop offset="0.463768" stop-color="#6ACB9B"/><stop offset="0.471014" stop-color="#69CB9C"/><stop offset="0.478261" stop-color="#68CB9D"/><stop offset="0.485507" stop-color="#67CB9E"/><stop offset="0.492754" stop-color="#66CB9F"/><stop offset="0.5" stop-color="#65CBA0"/><stop offset="0.507246" stop-color="#64CBA1"/><stop offset="0.514493" stop-color="#63CBA1"/><stop offset="0.521739" stop-color="#61CBA2"/><stop offset="0.528986" stop-color="#60CBA3"/><stop offset="0.536232" stop-color="#5FCBA4"/><stop offset="0.543478" stop-color="#5ECBA5"/><stop offset="0.550725" stop-color="#5DCBA6"/><stop offset="0.557971" stop-color="#5CCBA7"/><stop offset="0.565217" stop-color="#5BCBA8"/><stop offset="0.572464" stop-color="#5ACBA8"/><stop offset="0.57971" stop-color="#58CBA9"/><stop offset="0.586957" stop-color="#57CBAA"/><stop offset="0.594203" stop-color="#56CBAB"/><stop offset="0.601449" stop-color="#55CBAC"/><stop offset="0.608696" stop-color="#54CBAC"/><stop offset="0.615942" stop-color="#52CAAD"/><stop offset="0.623188" stop-color="#51CAAE"/><stop offset="0.630435" stop-color="#50CAAF"/><stop offset="0.637681" stop-color="#4FCAAF"/><stop offset="0.644928" stop-color="#4DCAB0"/><stop offset="0.652174" stop-color="#4CCAB1"/><stop offset="0.65942" stop-color="#4BCAB2"/><stop offset="0.666667" stop-color="#4ACAB2"/><stop offset="0.673913" stop-color="#48CAB3"/><stop offset="0.681159" stop-color="#47CAB3"/><stop offset="0.688406" stop-color="#45CAB4"/><stop offset="0.695652" stop-color="#44CAB5"/><stop offset="0.702899" stop-color="#43CAB5"/><stop offset="0.710145" stop-color="#41CAB6"/><stop offset="0.717391" stop-color="#40CAB7"/><stop offset="0.724638" stop-color="#3FCAB7"/><stop offset="0.731884" stop-color="#3DCAB8"/><stop offset="0.73913" stop-color="#3CCAB8"/><stop offset="0.746377" stop-color="#3ACAB9"/><stop offset="0.753623" stop-color="#39CAB9"/><stop offset="0.76087" stop-color="#37CABA"/><stop offset="0.768116" stop-color="#36C9BA"/><stop offset="0.775362" stop-color="#34C9BB"/><stop offset="0.782609" stop-color="#33C9BB"/><stop offset="0.789855" stop-color="#31C9BC"/><stop offset="0.797101" stop-color="#30C9BC"/><stop offset="0.804348" stop-color="#2EC9BC"/><stop offset="0.811594" stop-color="#2DC9BD"/><stop offset="0.818841" stop-color="#2BC9BD"/><stop offset="0.826087" stop-color="#29C9BE"/><stop offset="0.833333" stop-color="#28C9BE"/><stop offset="0.84058" stop-color="#26C9BE"/><stop offset="0.847826" stop-color="#25C9BF"/><stop offset="0.855072" stop-color="#23C9BF"/><stop offset="0.862319" stop-color="#21C9BF"/><stop offset="0.869565" stop-color="#20C9C0"/><stop offset="0.876812" stop-color="#1EC9C0"/><stop offset="0.884058" stop-color="#1CC9C0"/><stop offset="0.891304" stop-color="#1AC8C1"/><stop offset="0.898551" stop-color="#19C8C1"/><stop offset="0.905797" stop-color="#17C8C1"/><stop offset="0.913043" stop-color="#15C8C1"/><stop offset="0.92029" stop-color="#14C8C1"/><stop offset="0.927536" stop-color="#12C8C2"/><stop offset="0.934783" stop-color="#10C8C2"/><stop offset="0.942029" stop-color="#0EC8C2"/><stop offset="0.949275" stop-color="#0CC8C2"/><stop offset="0.956522" stop-color="#0BC8C2"/><stop offset="0.963768" stop-color="#09C8C2"/><stop offset="0.971014" stop-color="#07C8C2"/><stop offset="0.978261" stop-color="#05C8C2"/><stop offset="0.985507" stop-color="#03C8C2"/><stop offset="0.992754" stop-color="#01C8C2"/><stop offset="1" stop-color="#00C8C3"/></linearGradient></defs><g clip-path="url(#clip0)" transform="translate(-277 -610)"><path d="M277 672.252C277 637.871 304.871 610 339.252 610L647.748 610C682.129 610 710 637.871 710 672.252L710 807.748C710 842.129 682.129 870 647.748 870L339.252 870C304.871 870 277 842.129 277 807.748Z" fill="url(#fill1)" fill-rule="evenodd"/><path d="M553.325 681C564.247 681 573.722 683.369 581.75 688.107 589.777 692.845 595.757 699.015 599.689 706.618L579.046 721.162C577.299 716.975 574.978 713.725 572.083 711.411 569.189 709.097 566.022 707.472 562.581 706.535 559.141 705.599 555.837 705.13 552.669 705.13 547.536 705.13 543.058 706.149 539.235 708.188 535.412 710.226 532.245 712.954 529.733 716.369 527.22 719.785 525.364 723.586 524.162 727.773 522.961 731.961 522.36 736.147 522.36 740.334 522.36 744.962 523.07 749.425 524.49 753.722 525.91 758.019 527.958 761.82 530.634 765.126 533.31 768.432 536.559 771.048 540.382 772.977 544.205 774.905 548.41 775.869 552.997 775.869 556.273 775.869 559.605 775.318 562.99 774.216 566.376 773.114 569.517 771.379 572.411 769.01 575.306 766.641 577.517 763.529 579.046 759.672L601 772.729C598.706 778.458 594.938 783.362 589.695 787.438 584.453 791.516 578.527 794.628 571.92 796.777 565.312 798.925 558.786 800 552.341 800 543.932 800 536.204 798.264 529.159 794.794 522.114 791.323 516.053 786.695 510.974 780.91 505.895 775.125 501.963 768.625 499.178 761.407 496.393 754.19 495 746.836 495 739.343 495 732.181 496.311 725.156 498.932 718.27 501.553 711.383 505.376 705.13 510.4 699.511 515.425 693.891 521.541 689.402 528.75 686.041 535.958 682.68 544.15 681 553.325 681Z" fill="#FFFFFF" fill-rule="evenodd"/><path d="M421.097 682 450.066 682 490 799 462.504 799 454.628 772.798 416.374 772.798 408.495 799 381 799 421.097 682ZM435.5 709.19 421.972 754.177 449.03 754.177 435.5 709.19Z" fill="#FFFFFF" fill-rule="evenodd"/></g></svg>