<svg width="433" height="260" xmlns="http://www.w3.org/2000/svg" xmlns:xlink="http://www.w3.org/1999/xlink" overflow="hidden"><defs><clipPath id="clip0"><rect x="277" y="610" width="433" height="260"/></clipPath><linearGradient x1="320.25" y1="566.75" x2="666.75" y2="913.25" gradientUnits="userSpaceOnUse" spreadMethod="reflect" id="fill1"><stop offset="0" stop-color="#92D050"/><stop offset="0.00813008" stop-color="#91CF51"/><stop offset="0.0162602" stop-color="#91CF53"/><stop offset="0.0243902" stop-color="#91CF55"/><stop offset="0.0325203" stop-color="#91CF57"/><stop offset="0.0406504" stop-color="#91CF59"/><stop offset="0.0487805" stop-color="#91CF5B"/><stop offset="0.0569106" stop-color="#91CF5C"/><stop offset="0.0650406" stop-color="#91CF5E"/><stop offset="0.0731707" stop-color="#91CF60"/><stop offset="0.0813008" stop-color="#91CF62"/><stop offset="0.0894309" stop-color="#90CF63"/><stop offset="0.097561" stop-color="#90CF65"/><stop offset="0.105691" stop-color="#90CF67"/><stop offset="0.113821" stop-color="#90CF69"/><stop offset="0.121951" stop-color="#90CF6A"/><stop offset="0.130081" stop-color="#8FCF6C"/><stop offset="0.138211" stop-color="#8FCF6E"/><stop offset="0.146341" stop-color="#8FCF6F"/><stop offset="0.154472" stop-color="#8FCF71"/><stop offset="0.162602" stop-color="#8ECF73"/><stop offset="0.170732" stop-color="#8ECF74"/><stop offset="0.178862" stop-color="#8ECF76"/><stop offset="0.186992" stop-color="#8DCF77"/><stop offset="0.195122" stop-color="#8DCF79"/><stop offset="0.203252" stop-color="#8DCF7B"/><stop offset="0.211382" stop-color="#8CCF7C"/><stop offset="0.219512" stop-color="#8CCF7E"/><stop offset="0.227642" stop-color="#8CCF7F"/><stop offset="0.235772" stop-color="#8BCF81"/><stop offset="0.243902" stop-color="#8BCF82"/><stop offset="0.252033" stop-color="#8ACF84"/><stop offset="0.260163" stop-color="#8ACF85"/><stop offset="0.268293" stop-color="#89CF86"/><stop offset="0.276423" stop-color="#89CF88"/><stop offset="0.284553" stop-color="#88CF89"/><stop offset="0.292683" stop-color="#88CF8B"/><stop offset="0.300813" stop-color="#88CF8C"/><stop offset="0.308943" stop-color="#87CF8D"/><stop offset="0.317073" stop-color="#86CF8F"/><stop offset="0.325203" stop-color="#86CF90"/><stop offset="0.333333" stop-color="#85CF92"/><stop offset="0.341463" stop-color="#85CF93"/><stop offset="0.349593" stop-color="#84CF94"/><stop offset="0.357724" stop-color="#84CF95"/><stop offset="0.365854" stop-color="#83CF97"/><stop offset="0.373984" stop-color="#82CF98"/><stop offset="0.382114" stop-color="#82CF99"/><stop offset="0.390244" stop-color="#81CF9A"/><stop offset="0.398374" stop-color="#81CF9C"/><stop offset="0.406504" stop-color="#80CF9D"/><stop offset="0.414634" stop-color="#7FCF9E"/><stop offset="0.422764" stop-color="#7FCF9F"/><stop offset="0.430894" stop-color="#7ECFA0"/><stop offset="0.439024" stop-color="#7DCFA2"/><stop offset="0.447154" stop-color="#7CCFA3"/><stop offset="0.455285" stop-color="#7CCFA4"/><stop offset="0.463415" stop-color="#7BCFA5"/><stop offset="0.471545" stop-color="#7ACFA6"/><stop offset="0.479675" stop-color="#7ACEA7"/><stop offset="0.487805" stop-color="#79CEA8"/><stop offset="0.495935" stop-color="#78CEA9"/><stop offset="0.504065" stop-color="#77CEAA"/><stop offset="0.512195" stop-color="#76CEAB"/><stop offset="0.520325" stop-color="#76CEAC"/><stop offset="0.528455" stop-color="#75CEAD"/><stop offset="0.536585" stop-color="#74CEAE"/><stop offset="0.544715" stop-color="#73CEAF"/><stop offset="0.552846" stop-color="#72CEB0"/><stop offset="0.560976" stop-color="#71CEB1"/><stop offset="0.569106" stop-color="#70CEB2"/><stop offset="0.577236" stop-color="#70CEB3"/><stop offset="0.585366" stop-color="#6FCEB4"/><stop offset="0.593496" stop-color="#6ECEB5"/><stop offset="0.601626" stop-color="#6DCEB5"/><stop offset="0.609756" stop-color="#6CCEB6"/><stop offset="0.617886" stop-color="#6BCEB7"/><stop offset="0.626016" stop-color="#6ACEB8"/><stop offset="0.634146" stop-color="#69CEB9"/><stop offset="0.642276" stop-color="#68CEB9"/><stop offset="0.650406" stop-color="#67CEBA"/><stop offset="0.658537" stop-color="#66CEBB"/><stop offset="0.666667" stop-color="#65CEBC"/><stop offset="0.674797" stop-color="#64CEBC"/><stop offset="0.682927" stop-color="#63CEBD"/><stop offset="0.691057" stop-color="#62CDBE"/><stop offset="0.699187" stop-color="#61CDBE"/><stop offset="0.707317" stop-color="#60CDBF"/><stop offset="0.715447" stop-color="#5FCDC0"/><stop offset="0.723577" stop-color="#5ECDC0"/><stop offset="0.731707" stop-color="#5DCDC1"/><stop offset="0.739837" stop-color="#5CCDC2"/><stop offset="0.747967" stop-color="#5ACDC2"/><stop offset="0.756098" stop-color="#59CDC3"/><stop offset="0.764228" stop-color="#58CDC3"/><stop offset="0.772358" stop-color="#57CDC4"/><stop offset="0.780488" stop-color="#56CDC4"/><stop offset="0.788618" stop-color="#55CDC5"/><stop offset="0.796748" stop-color="#53CDC5"/><stop offset="0.804878" stop-color="#52CDC6"/><stop offset="0.813008" stop-color="#51CDC6"/><stop offset="0.821138" stop-color="#50CDC7"/><stop offset="0.829268" stop-color="#4FCDC7"/><stop offset="0.837398" stop-color="#4DCDC7"/><stop offset="0.845528" stop-color="#4CCDC8"/><stop offset="0.853659" stop-color="#4BCDC8"/><stop offset="0.861789" stop-color="#4ACCC8"/><stop offset="0.869919" stop-color="#48CCC9"/><stop offset="0.878049" stop-color="#47CCC9"/><stop offset="0.886179" stop-color="#46CCC9"/><stop offset="0.894309" stop-color="#44CCCA"/><stop offset="0.902439" stop-color="#43CCCA"/><stop offset="0.910569" stop-color="#42CCCA"/><stop offset="0.918699" stop-color="#40CCCA"/><stop offset="0.926829" stop-color="#3FCCCB"/><stop offset="0.934959" stop-color="#3ECCCB"/><stop offset="0.943089" stop-color="#3CCCCB"/><stop offset="0.951219" stop-color="#3BCCCB"/><stop offset="0.95935" stop-color="#3ACCCB"/><stop offset="0.96748" stop-color="#38CCCB"/><stop offset="0.97561" stop-color="#37CCCB"/><stop offset="0.98374" stop-color="#35CCCB"/><stop offset="0.99187" stop-color="#34CCCB"/><stop offset="1" stop-color="#33CCCC"/></linearGradient></defs><g clip-path="url(#clip0)" transform="translate(-277 -610)"><path d="M277 672.252C277 637.871 304.871 610 339.252 610L647.748 610C682.129 610 710 637.871 710 672.252L710 807.748C710 842.129 682.129 870 647.748 870L339.252 870C304.871 870 277 842.129 277 807.748Z" fill="url(#fill1)" fill-rule="evenodd"/><path d="M435.383 713.394 424.507 754.714 446.26 754.714ZM417.417 681.826 453.35 681.826 490.602 799.173 457.965 799.173 451.915 776.2 418.854 776.2 412.801 799.173 380 799.173ZM553.677 681C564.886 681 574.666 683.341 583.018 688.024 587.193 690.366 590.833 693.086 593.938 696.185L601 705.746 601 707.077 577.083 724.137C575.655 720.281 573.595 717.306 570.903 715.212 568.21 713.119 565.298 711.659 562.166 710.832 559.034 710.006 555.985 709.593 553.018 709.593 548.403 709.593 544.42 710.502 541.068 712.32 537.716 714.138 534.969 716.535 532.826 719.509 530.684 722.485 529.09 725.79 528.046 729.426 527.002 733.062 526.48 736.698 526.48 740.334 526.48 744.411 527.084 748.323 528.293 752.069 529.502 755.816 531.26 759.149 533.568 762.068 535.875 764.988 538.705 767.275 542.057 768.927 545.408 770.58 549.172 771.407 553.348 771.407 556.315 771.407 559.337 770.939 562.414 770.002 565.49 769.065 568.292 767.55 570.82 765.457 573.347 763.363 575.27 760.553 576.589 757.028L601 771.652 601 775.02 591.259 787.438C585.875 791.516 579.776 794.628 572.963 796.777 566.15 798.925 559.392 800 552.689 800 544.007 800 536.068 798.264 528.87 794.794 521.673 791.323 515.464 786.695 510.244 780.91 505.025 775.125 500.986 768.625 498.129 761.407 495.272 754.19 493.843 746.836 493.843 739.343 493.843 732.181 495.19 725.156 497.882 718.27 500.574 711.383 504.503 705.13 509.667 699.511 514.832 693.891 521.123 689.402 528.541 686.041 535.958 682.68 544.337 681 553.677 681Z" fill="#FFFFFF" fill-rule="evenodd"/></g></svg>