<svg width="432" height="260" xmlns="http://www.w3.org/2000/svg" xmlns:xlink="http://www.w3.org/1999/xlink" overflow="hidden"><defs><clipPath id="clip0"><rect x="910" y="1020" width="432" height="260"/></clipPath><linearGradient x1="953" y1="977" x2="1299" y2="1323" gradientUnits="userSpaceOnUse" spreadMethod="reflect" id="fill1"><stop offset="0" stop-color="#8497B0"/><stop offset="0.00819672" stop-color="#8396AF"/><stop offset="0.0163934" stop-color="#8396AF"/><stop offset="0.0245902" stop-color="#8396AF"/><stop offset="0.0327869" stop-color="#8396AF"/><stop offset="0.0409836" stop-color="#8396AF"/><stop offset="0.0491803" stop-color="#8396AF"/><stop offset="0.057377" stop-color="#8396AF"/><stop offset="0.0655738" stop-color="#8396AF"/><stop offset="0.0737705" stop-color="#8396AF"/><stop offset="0.0819672" stop-color="#8395AE"/><stop offset="0.0901639" stop-color="#8295AE"/><stop offset="0.0983607" stop-color="#8295AE"/><stop offset="0.106557" stop-color="#8295AE"/><stop offset="0.114754" stop-color="#8295AD"/><stop offset="0.122951" stop-color="#8294AD"/><stop offset="0.131148" stop-color="#8194AD"/><stop offset="0.139344" stop-color="#8194AC"/><stop offset="0.147541" stop-color="#8193AC"/><stop offset="0.155738" stop-color="#8193AC"/><stop offset="0.163934" stop-color="#8093AB"/><stop offset="0.172131" stop-color="#8092AB"/><stop offset="0.180328" stop-color="#8092AB"/><stop offset="0.188525" stop-color="#7F92AA"/><stop offset="0.196721" stop-color="#7F91AA"/><stop offset="0.204918" stop-color="#7E91A9"/><stop offset="0.213115" stop-color="#7E90A9"/><stop offset="0.221311" stop-color="#7E90A8"/><stop offset="0.229508" stop-color="#7D90A8"/><stop offset="0.237705" stop-color="#7D8FA7"/><stop offset="0.245902" stop-color="#7C8FA7"/><stop offset="0.254098" stop-color="#7C8EA6"/><stop offset="0.262295" stop-color="#7C8EA5"/><stop offset="0.270492" stop-color="#7B8DA5"/><stop offset="0.278689" stop-color="#7B8DA4"/><stop offset="0.286885" stop-color="#7A8CA4"/><stop offset="0.295082" stop-color="#7A8BA3"/><stop offset="0.303279" stop-color="#798BA2"/><stop offset="0.311475" stop-color="#788AA2"/><stop offset="0.319672" stop-color="#788AA1"/><stop offset="0.327869" stop-color="#7789A0"/><stop offset="0.336066" stop-color="#7788A0"/><stop offset="0.344262" stop-color="#76889F"/><stop offset="0.352459" stop-color="#76879E"/><stop offset="0.360656" stop-color="#75869D"/><stop offset="0.368852" stop-color="#74869D"/><stop offset="0.377049" stop-color="#74859C"/><stop offset="0.385246" stop-color="#73849B"/><stop offset="0.393443" stop-color="#72849A"/><stop offset="0.401639" stop-color="#728399"/><stop offset="0.409836" stop-color="#718298"/><stop offset="0.418033" stop-color="#708198"/><stop offset="0.42623" stop-color="#708097"/><stop offset="0.434426" stop-color="#6F8096"/><stop offset="0.442623" stop-color="#6E7F95"/><stop offset="0.45082" stop-color="#6D7E94"/><stop offset="0.459016" stop-color="#6D7D93"/><stop offset="0.467213" stop-color="#6C7C92"/><stop offset="0.47541" stop-color="#6B7B91"/><stop offset="0.483607" stop-color="#6A7B90"/><stop offset="0.491803" stop-color="#6A7A8F"/><stop offset="0.5" stop-color="#69798E"/><stop offset="0.508197" stop-color="#68788D"/><stop offset="0.516393" stop-color="#67778C"/><stop offset="0.52459" stop-color="#66768B"/><stop offset="0.532787" stop-color="#65758A"/><stop offset="0.540984" stop-color="#657489"/><stop offset="0.54918" stop-color="#647388"/><stop offset="0.557377" stop-color="#637286"/><stop offset="0.565574" stop-color="#627185"/><stop offset="0.57377" stop-color="#617084"/><stop offset="0.581967" stop-color="#606F83"/><stop offset="0.590164" stop-color="#5F6E82"/><stop offset="0.598361" stop-color="#5E6D81"/><stop offset="0.606557" stop-color="#5D6C7F"/><stop offset="0.614754" stop-color="#5C6B7E"/><stop offset="0.622951" stop-color="#5B6A7D"/><stop offset="0.631148" stop-color="#5A697C"/><stop offset="0.639344" stop-color="#59677A"/><stop offset="0.647541" stop-color="#586679"/><stop offset="0.655738" stop-color="#576578"/><stop offset="0.663934" stop-color="#566476"/><stop offset="0.672131" stop-color="#556375"/><stop offset="0.680328" stop-color="#546274"/><stop offset="0.688525" stop-color="#536072"/><stop offset="0.696721" stop-color="#525F71"/><stop offset="0.704918" stop-color="#515E70"/><stop offset="0.713115" stop-color="#505D6E"/><stop offset="0.721311" stop-color="#4E5B6D"/><stop offset="0.729508" stop-color="#4D5A6B"/><stop offset="0.737705" stop-color="#4C596A"/><stop offset="0.745902" stop-color="#4B5869"/><stop offset="0.754098" stop-color="#4A5667"/><stop offset="0.762295" stop-color="#495566"/><stop offset="0.770492" stop-color="#475464"/><stop offset="0.778689" stop-color="#465263"/><stop offset="0.786885" stop-color="#455161"/><stop offset="0.795082" stop-color="#44505F"/><stop offset="0.803279" stop-color="#434E5E"/><stop offset="0.811475" stop-color="#414D5C"/><stop offset="0.819672" stop-color="#404B5B"/><stop offset="0.827869" stop-color="#3F4A59"/><stop offset="0.836066" stop-color="#3D4958"/><stop offset="0.844262" stop-color="#3C4756"/><stop offset="0.852459" stop-color="#3B4654"/><stop offset="0.860656" stop-color="#3A4453"/><stop offset="0.868852" stop-color="#384351"/><stop offset="0.877049" stop-color="#37414F"/><stop offset="0.885246" stop-color="#36404E"/><stop offset="0.893443" stop-color="#343E4C"/><stop offset="0.901639" stop-color="#333D4A"/><stop offset="0.909836" stop-color="#313B48"/><stop offset="0.918033" stop-color="#303A47"/><stop offset="0.92623" stop-color="#2F3845"/><stop offset="0.934426" stop-color="#2D3743"/><stop offset="0.942623" stop-color="#2C3541"/><stop offset="0.95082" stop-color="#2A3340"/><stop offset="0.959016" stop-color="#29323E"/><stop offset="0.967213" stop-color="#27303C"/><stop offset="0.97541" stop-color="#262E3A"/><stop offset="0.983607" stop-color="#242D38"/><stop offset="0.991803" stop-color="#232B36"/><stop offset="1" stop-color="#222A35"/></linearGradient></defs><g clip-path="url(#clip0)" transform="translate(-910 -1020)"><path d="M910 1082.25C910 1047.87 937.871 1020 972.252 1020L1279.75 1020C1314.13 1020 1342 1047.87 1342 1082.25L1342 1217.75C1342 1252.13 1314.13 1280 1279.75 1280L972.252 1280C937.871 1280 910 1252.13 910 1217.75Z" fill="url(#fill1)" fill-rule="evenodd"/><path d="M1141.66 1091.83 1223.52 1091.83 1223.52 1119.92 1173.78 1119.92 1173.78 1136.45 1216.27 1136.45 1216.27 1162.57 1173.78 1162.57 1173.78 1181.08 1225 1181.08 1225 1209.17 1141.66 1209.17ZM1081.79 1091C1092.99 1091 1102.76 1093.34 1111.11 1098.02 1119.45 1102.71 1125.65 1108.91 1129.72 1116.62L1105.18 1134.14C1103.75 1130.28 1101.69 1127.31 1099 1125.21 1096.31 1123.12 1093.4 1121.66 1090.27 1120.83 1087.14 1120.01 1084.09 1119.59 1081.13 1119.59 1076.52 1119.59 1072.54 1120.5 1069.19 1122.32 1065.84 1124.14 1063.09 1126.53 1060.95 1129.51 1058.81 1132.48 1057.22 1135.79 1056.18 1139.43 1055.13 1143.06 1054.61 1146.7 1054.61 1150.33 1054.61 1154.41 1055.22 1158.32 1056.42 1162.07 1057.63 1165.82 1059.39 1169.15 1061.69 1172.07 1064 1174.99 1066.83 1177.27 1070.18 1178.93 1073.53 1180.58 1077.29 1181.41 1081.46 1181.41 1084.42 1181.41 1087.44 1180.94 1090.52 1180 1093.59 1179.07 1096.39 1177.55 1098.92 1175.46 1101.44 1173.36 1103.36 1170.55 1104.68 1167.03L1130.87 1182.73C1128.56 1188.46 1124.72 1193.36 1119.34 1197.44 1113.96 1201.52 1107.87 1204.63 1101.06 1206.78 1094.25 1208.93 1087.5 1210 1080.8 1210 1072.13 1210 1064.19 1208.26 1057 1204.79 1049.81 1201.32 1043.6 1196.7 1038.39 1190.91 1033.17 1185.13 1029.14 1178.62 1026.28 1171.41 1023.43 1164.19 1022 1156.84 1022 1149.34 1022 1142.18 1023.35 1135.16 1026.04 1128.27 1028.73 1121.38 1032.65 1115.13 1037.81 1109.51 1042.97 1103.89 1049.26 1099.4 1056.67 1096.04 1064.08 1092.68 1072.46 1091 1081.79 1091Z" fill="#FFFFFF" fill-rule="evenodd"/></g></svg>