<svg width="432" height="260" xmlns="http://www.w3.org/2000/svg" xmlns:xlink="http://www.w3.org/1999/xlink" overflow="hidden"><defs><clipPath id="clip0"><rect x="910" y="1020" width="432" height="260"/></clipPath><linearGradient x1="953" y1="977" x2="1299" y2="1323" gradientUnits="userSpaceOnUse" spreadMethod="reflect" id="fill1"><stop offset="0" stop-color="#8497B0"/><stop offset="0.00819672" stop-color="#8396AF"/><stop offset="0.0163934" stop-color="#8396AF"/><stop offset="0.0245902" stop-color="#8396AF"/><stop offset="0.0327869" stop-color="#8396AF"/><stop offset="0.0409836" stop-color="#8396AF"/><stop offset="0.0491803" stop-color="#8396AF"/><stop offset="0.057377" stop-color="#8396AF"/><stop offset="0.0655738" stop-color="#8396AF"/><stop offset="0.0737705" stop-color="#8396AF"/><stop offset="0.0819672" stop-color="#8395AE"/><stop offset="0.0901639" stop-color="#8295AE"/><stop offset="0.0983607" stop-color="#8295AE"/><stop offset="0.106557" stop-color="#8295AE"/><stop offset="0.114754" stop-color="#8295AD"/><stop offset="0.122951" stop-color="#8294AD"/><stop offset="0.131148" stop-color="#8194AD"/><stop offset="0.139344" stop-color="#8194AC"/><stop offset="0.147541" stop-color="#8193AC"/><stop offset="0.155738" stop-color="#8193AC"/><stop offset="0.163934" stop-color="#8093AB"/><stop offset="0.172131" stop-color="#8092AB"/><stop offset="0.180328" stop-color="#8092AB"/><stop offset="0.188525" stop-color="#7F92AA"/><stop offset="0.196721" stop-color="#7F91AA"/><stop offset="0.204918" stop-color="#7E91A9"/><stop offset="0.213115" stop-color="#7E90A9"/><stop offset="0.221311" stop-color="#7E90A8"/><stop offset="0.229508" stop-color="#7D90A8"/><stop offset="0.237705" stop-color="#7D8FA7"/><stop offset="0.245902" stop-color="#7C8FA7"/><stop offset="0.254098" stop-color="#7C8EA6"/><stop offset="0.262295" stop-color="#7C8EA5"/><stop offset="0.270492" stop-color="#7B8DA5"/><stop offset="0.278689" stop-color="#7B8DA4"/><stop offset="0.286885" stop-color="#7A8CA4"/><stop offset="0.295082" stop-color="#7A8BA3"/><stop offset="0.303279" stop-color="#798BA2"/><stop offset="0.311475" stop-color="#788AA2"/><stop offset="0.319672" stop-color="#788AA1"/><stop offset="0.327869" stop-color="#7789A0"/><stop offset="0.336066" stop-color="#7788A0"/><stop offset="0.344262" stop-color="#76889F"/><stop offset="0.352459" stop-color="#76879E"/><stop offset="0.360656" stop-color="#75869D"/><stop offset="0.368852" stop-color="#74869D"/><stop offset="0.377049" stop-color="#74859C"/><stop offset="0.385246" stop-color="#73849B"/><stop offset="0.393443" stop-color="#72849A"/><stop offset="0.401639" stop-color="#728399"/><stop offset="0.409836" stop-color="#718298"/><stop offset="0.418033" stop-color="#708198"/><stop offset="0.42623" stop-color="#708097"/><stop offset="0.434426" stop-color="#6F8096"/><stop offset="0.442623" stop-color="#6E7F95"/><stop offset="0.45082" stop-color="#6D7E94"/><stop offset="0.459016" stop-color="#6D7D93"/><stop offset="0.467213" stop-color="#6C7C92"/><stop offset="0.47541" stop-color="#6B7B91"/><stop offset="0.483607" stop-color="#6A7B90"/><stop offset="0.491803" stop-color="#6A7A8F"/><stop offset="0.5" stop-color="#69798E"/><stop offset="0.508197" stop-color="#68788D"/><stop offset="0.516393" stop-color="#67778C"/><stop offset="0.52459" stop-color="#66768B"/><stop offset="0.532787" stop-color="#65758A"/><stop offset="0.540984" stop-color="#657489"/><stop offset="0.54918" stop-color="#647388"/><stop offset="0.557377" stop-color="#637286"/><stop offset="0.565574" stop-color="#627185"/><stop offset="0.57377" stop-color="#617084"/><stop offset="0.581967" stop-color="#606F83"/><stop offset="0.590164" stop-color="#5F6E82"/><stop offset="0.598361" stop-color="#5E6D81"/><stop offset="0.606557" stop-color="#5D6C7F"/><stop offset="0.614754" stop-color="#5C6B7E"/><stop offset="0.622951" stop-color="#5B6A7D"/><stop offset="0.631148" stop-color="#5A697C"/><stop offset="0.639344" stop-color="#59677A"/><stop offset="0.647541" stop-color="#586679"/><stop offset="0.655738" stop-color="#576578"/><stop offset="0.663934" stop-color="#566476"/><stop offset="0.672131" stop-color="#556375"/><stop offset="0.680328" stop-color="#546274"/><stop offset="0.688525" stop-color="#536072"/><stop offset="0.696721" stop-color="#525F71"/><stop offset="0.704918" stop-color="#515E70"/><stop offset="0.713115" stop-color="#505D6E"/><stop offset="0.721311" stop-color="#4E5B6D"/><stop offset="0.729508" stop-color="#4D5A6B"/><stop offset="0.737705" stop-color="#4C596A"/><stop offset="0.745902" stop-color="#4B5869"/><stop offset="0.754098" stop-color="#4A5667"/><stop offset="0.762295" stop-color="#495566"/><stop offset="0.770492" stop-color="#475464"/><stop offset="0.778689" stop-color="#465263"/><stop offset="0.786885" stop-color="#455161"/><stop offset="0.795082" stop-color="#44505F"/><stop offset="0.803279" stop-color="#434E5E"/><stop offset="0.811475" stop-color="#414D5C"/><stop offset="0.819672" stop-color="#404B5B"/><stop offset="0.827869" stop-color="#3F4A59"/><stop offset="0.836066" stop-color="#3D4958"/><stop offset="0.844262" stop-color="#3C4756"/><stop offset="0.852459" stop-color="#3B4654"/><stop offset="0.860656" stop-color="#3A4453"/><stop offset="0.868852" stop-color="#384351"/><stop offset="0.877049" stop-color="#37414F"/><stop offset="0.885246" stop-color="#36404E"/><stop offset="0.893443" stop-color="#343E4C"/><stop offset="0.901639" stop-color="#333D4A"/><stop offset="0.909836" stop-color="#313B48"/><stop offset="0.918033" stop-color="#303A47"/><stop offset="0.92623" stop-color="#2F3845"/><stop offset="0.934426" stop-color="#2D3743"/><stop offset="0.942623" stop-color="#2C3541"/><stop offset="0.95082" stop-color="#2A3340"/><stop offset="0.959016" stop-color="#29323E"/><stop offset="0.967213" stop-color="#27303C"/><stop offset="0.97541" stop-color="#262E3A"/><stop offset="0.983607" stop-color="#242D38"/><stop offset="0.991803" stop-color="#232B36"/><stop offset="1" stop-color="#222A35"/></linearGradient></defs><g clip-path="url(#clip0)" transform="translate(-910 -1020)"><path d="M910 1082.25C910 1047.87 937.871 1020 972.252 1020L1279.75 1020C1314.13 1020 1342 1047.87 1342 1082.25L1342 1217.75C1342 1252.13 1314.13 1280 1279.75 1280L972.252 1280C937.871 1280 910 1252.13 910 1217.75Z" fill="url(#fill1)" fill-rule="evenodd"/><path d="M1079.93 1085C1092.09 1085 1102.63 1087.61 1111.57 1092.82 1120.51 1098.04 1127.16 1104.83 1131.54 1113.2L1108.56 1129.21C1106.62 1124.6 1104.03 1121.03 1100.81 1118.48 1097.59 1115.93 1094.06 1114.14 1090.23 1113.11 1086.4 1112.08 1082.72 1111.56 1079.2 1111.56 1073.48 1111.56 1068.5 1112.69 1064.24 1114.93 1059.99 1117.17 1056.46 1120.18 1053.66 1123.94 1050.87 1127.7 1048.8 1131.88 1047.46 1136.49 1046.13 1141.1 1045.46 1145.71 1045.46 1150.32 1045.46 1155.41 1046.25 1160.33 1047.83 1165.06 1049.41 1169.79 1051.69 1173.97 1054.67 1177.61 1057.65 1181.25 1061.26 1184.13 1065.52 1186.25 1069.78 1188.37 1074.46 1189.44 1079.56 1189.44 1083.21 1189.44 1086.92 1188.83 1090.69 1187.62 1094.46 1186.4 1097.95 1184.49 1101.17 1181.89 1104.4 1179.28 1106.86 1175.85 1108.56 1171.61L1133 1185.98C1130.45 1192.29 1126.25 1197.68 1120.42 1202.17 1114.58 1206.66 1107.98 1210.09 1100.63 1212.45 1093.27 1214.82 1086.01 1216 1078.83 1216 1069.47 1216 1060.87 1214.09 1053.03 1210.27 1045.18 1206.45 1038.44 1201.35 1032.78 1194.99 1027.13 1188.62 1022.75 1181.46 1019.65 1173.52 1016.55 1165.57 1015 1157.47 1015 1149.23 1015 1141.34 1016.46 1133.61 1019.38 1126.03 1022.3 1118.45 1026.55 1111.56 1032.14 1105.38 1037.74 1099.19 1044.55 1094.25 1052.57 1090.55 1060.59 1086.85 1069.71 1085 1079.93 1085Z" fill="#FFFFFF" fill-rule="evenodd"/><path d="M1146 1086 1235.36 1086 1235.36 1112.16 1175.91 1112.16 1175.91 1137.24 1226.97 1137.24 1226.97 1161.4 1175.91 1161.4 1175.91 1188.84 1237 1188.84 1237 1215 1146 1215 1146 1086Z" fill="#FFFFFF" fill-rule="evenodd"/></g></svg>