<svg width="433" height="260" xmlns="http://www.w3.org/2000/svg" xmlns:xlink="http://www.w3.org/1999/xlink" overflow="hidden"><defs><clipPath id="clip0"><rect x="1548" y="1733" width="433" height="260"/></clipPath><linearGradient x1="1591.25" y1="1689.75" x2="1937.75" y2="2036.25" gradientUnits="userSpaceOnUse" spreadMethod="reflect" id="fill1"><stop offset="0" stop-color="#FFD966"/><stop offset="0.8" stop-color="#BF9000"/><stop offset="1" stop-color="#BF9000"/></linearGradient></defs><g clip-path="url(#clip0)" transform="translate(-1548 -1733)"><path d="M1548 1795.25C1548 1760.87 1575.87 1733 1610.25 1733L1918.75 1733C1953.13 1733 1981 1760.87 1981 1795.25L1981 1930.75C1981 1965.13 1953.13 1993 1918.75 1993L1610.25 1993C1575.87 1993 1548 1965.13 1548 1930.75Z" fill="url(#fill1)" fill-rule="evenodd"/><path d="M1875.86 1828.63 1875.86 1860.69 1897.94 1860.69C1900.03 1860.69 1901.95 1860.08 1903.71 1858.87 1905.47 1857.66 1906.9 1855.84 1907.99 1853.42 1909.09 1850.99 1909.64 1848.02 1909.64 1844.49 1909.64 1840.86 1909.01 1837.85 1907.75 1835.49 1906.48 1833.12 1904.89 1831.38 1902.97 1830.28 1901.05 1829.18 1899.04 1828.63 1896.95 1828.63ZM1848.83 1804.83 1898.77 1804.83C1904.37 1804.83 1909.51 1805.96 1914.17 1808.21 1918.84 1810.47 1922.88 1813.5 1926.29 1817.3 1929.69 1821.11 1932.33 1825.38 1934.2 1830.11 1936.07 1834.85 1937 1839.7 1937 1844.66 1937 1851.38 1935.43 1857.77 1932.3 1863.83 1929.17 1869.89 1924.83 1874.82 1919.28 1878.62 1913.73 1882.42 1907.17 1884.32 1899.59 1884.32L1875.86 1884.32 1875.86 1922.17 1848.83 1922.17ZM1708.06 1804.83 1737.39 1804.83 1767.72 1866.14 1798.21 1804.83 1827.38 1804.83 1827.38 1922.17 1800.35 1922.17 1800.35 1852.26 1775.13 1903.17 1760.3 1903.17 1735.09 1852.26 1735.09 1922.17 1708.06 1922.17ZM1646.67 1804C1657.66 1804 1667.19 1806.37 1675.26 1811.11 1683.34 1815.84 1689.35 1822.02 1693.31 1829.62L1672.54 1844.16C1670.79 1839.98 1668.45 1836.72 1665.54 1834.41 1662.63 1832.1 1659.44 1830.47 1655.98 1829.54 1652.52 1828.6 1649.2 1828.13 1646.01 1828.13 1640.85 1828.13 1636.34 1829.15 1632.5 1831.19 1628.65 1833.23 1625.47 1835.95 1622.94 1839.37 1620.41 1842.78 1618.54 1846.59 1617.33 1850.77 1616.13 1854.96 1615.52 1859.15 1615.52 1863.33 1615.52 1867.96 1616.24 1872.43 1617.66 1876.72 1619.09 1881.02 1621.15 1884.82 1623.84 1888.13 1626.54 1891.43 1629.81 1894.05 1633.65 1895.98 1637.5 1897.91 1641.73 1898.87 1646.34 1898.87 1649.64 1898.87 1652.99 1898.32 1656.39 1897.22 1659.8 1896.11 1662.96 1894.38 1665.87 1892.01 1668.78 1889.64 1671.01 1886.53 1672.54 1882.67L1694.63 1895.73C1692.32 1901.46 1688.53 1906.36 1683.26 1910.44 1677.98 1914.52 1672.02 1917.63 1665.38 1919.78 1658.73 1921.93 1652.16 1923 1645.68 1923 1637.22 1923 1629.45 1921.26 1622.36 1917.79 1615.28 1914.32 1609.18 1909.69 1604.07 1903.91 1598.96 1898.13 1595 1891.62 1592.2 1884.41 1589.4 1877.19 1588 1869.84 1588 1862.34 1588 1855.18 1589.32 1848.16 1591.96 1841.27 1594.59 1834.38 1598.44 1828.13 1603.49 1822.51 1608.55 1816.89 1614.7 1812.4 1621.95 1809.04 1629.2 1805.68 1637.44 1804 1646.67 1804Z" fill="#FFFFFF" fill-rule="evenodd"/></g></svg>