<svg width="433" height="260" xmlns="http://www.w3.org/2000/svg" xmlns:xlink="http://www.w3.org/1999/xlink" overflow="hidden"><defs><clipPath id="clip0"><rect x="1548" y="1733" width="433" height="260"/></clipPath><linearGradient x1="1591.25" y1="1689.75" x2="1937.75" y2="2036.25" gradientUnits="userSpaceOnUse" spreadMethod="reflect" id="fill1"><stop offset="0" stop-color="#FFD966"/><stop offset="0.8" stop-color="#BF9000"/><stop offset="1" stop-color="#BF9000"/></linearGradient></defs><g clip-path="url(#clip0)" transform="translate(-1548 -1733)"><path d="M1548 1795.25C1548 1760.87 1575.87 1733 1610.25 1733L1918.75 1733C1953.13 1733 1981 1760.87 1981 1795.25L1981 1930.75C1981 1965.13 1953.13 1993 1918.75 1993L1610.25 1993C1575.87 1993 1548 1965.13 1548 1930.75Z" fill="url(#fill1)" fill-rule="evenodd"/><path d="M1636.93 1798C1649.09 1798 1659.63 1800.61 1668.57 1805.82 1677.51 1811.04 1684.16 1817.83 1688.54 1826.2L1665.56 1842.21C1663.62 1837.6 1661.03 1834.03 1657.81 1831.48 1654.59 1828.93 1651.06 1827.14 1647.23 1826.11 1643.4 1825.08 1639.72 1824.56 1636.2 1824.56 1630.48 1824.56 1625.5 1825.69 1621.24 1827.93 1616.99 1830.17 1613.46 1833.18 1610.66 1836.94 1607.87 1840.7 1605.8 1844.88 1604.46 1849.49 1603.13 1854.1 1602.46 1858.71 1602.46 1863.32 1602.46 1868.41 1603.25 1873.33 1604.83 1878.06 1606.41 1882.79 1608.69 1886.97 1611.67 1890.61 1614.65 1894.25 1618.26 1897.13 1622.52 1899.25 1626.77 1901.38 1631.46 1902.44 1636.56 1902.44 1640.21 1902.44 1643.92 1901.83 1647.69 1900.62 1651.46 1899.4 1654.95 1897.49 1658.17 1894.89 1661.4 1892.28 1663.86 1888.85 1665.56 1884.61L1690 1898.98C1687.45 1905.29 1683.25 1910.68 1677.42 1915.17 1671.58 1919.66 1664.98 1923.09 1657.63 1925.45 1650.27 1927.82 1643.01 1929 1635.83 1929 1626.47 1929 1617.87 1927.09 1610.03 1923.27 1602.18 1919.45 1595.44 1914.35 1589.78 1907.99 1584.13 1901.62 1579.75 1894.46 1576.65 1886.52 1573.55 1878.57 1572 1870.47 1572 1862.23 1572 1854.34 1573.46 1846.61 1576.38 1839.03 1579.3 1831.45 1583.55 1824.56 1589.14 1818.38 1594.74 1812.19 1601.55 1807.25 1609.57 1803.55 1617.6 1799.85 1626.71 1798 1636.93 1798Z" fill="#FFFFFF" fill-rule="evenodd"/><path d="M1703 1799 1735.45 1799 1769 1866.41 1802.73 1799 1835 1799 1835 1928 1805.1 1928 1805.1 1851.15 1777.2 1907.11 1760.8 1907.11 1732.9 1851.15 1732.9 1928 1703 1928 1703 1799Z" fill="#FFFFFF" fill-rule="evenodd"/><path d="M1861 1799 1916.5 1799C1922.73 1799 1928.44 1800.24 1933.63 1802.72 1938.82 1805.21 1943.31 1808.54 1947.09 1812.72 1950.88 1816.9 1953.81 1821.59 1955.89 1826.8 1957.96 1832.01 1959 1837.34 1959 1842.79 1959 1850.18 1957.26 1857.2 1953.78 1863.86 1950.3 1870.53 1945.48 1875.95 1939.31 1880.12 1933.14 1884.3 1925.84 1886.39 1917.42 1886.39L1891.04 1886.39 1891.04 1928 1861 1928 1861 1799ZM1891.04 1825.16 1891.04 1860.41 1915.59 1860.41C1917.91 1860.41 1920.04 1859.75 1922 1858.41 1923.95 1857.08 1925.54 1855.08 1926.76 1852.42 1927.98 1849.75 1928.59 1846.48 1928.59 1842.61 1928.59 1838.61 1927.89 1835.31 1926.49 1832.7 1925.08 1830.1 1923.31 1828.19 1921.17 1826.98 1919.04 1825.77 1916.81 1825.16 1914.49 1825.16L1891.04 1825.16Z" fill="#FFFFFF" fill-rule="evenodd"/></g></svg>