<svg width="433" height="260" xmlns="http://www.w3.org/2000/svg" xmlns:xlink="http://www.w3.org/1999/xlink" overflow="hidden"><defs><clipPath id="clip0"><rect x="2964" y="1733" width="433" height="260"/></clipPath><linearGradient x1="3007.25" y1="1689.75" x2="3353.75" y2="2036.25" gradientUnits="userSpaceOnUse" spreadMethod="reflect" id="fill1"><stop offset="0" stop-color="#404040"/><stop offset="0.02" stop-color="#3F3F3F"/><stop offset="0.04" stop-color="#3F3F3F"/><stop offset="0.06" stop-color="#3F3F3F"/><stop offset="0.08" stop-color="#3F3F3F"/><stop offset="0.1" stop-color="#3F3F3F"/><stop offset="0.12" stop-color="#3F3F3F"/><stop offset="0.14" stop-color="#3E3E3E"/><stop offset="0.16" stop-color="#3E3E3E"/><stop offset="0.18" stop-color="#3D3D3D"/><stop offset="0.2" stop-color="#3D3D3D"/><stop offset="0.22" stop-color="#3D3D3D"/><stop offset="0.24" stop-color="#3C3C3C"/><stop offset="0.26" stop-color="#3B3B3B"/><stop offset="0.28" stop-color="#3B3B3B"/><stop offset="0.3" stop-color="#3A3A3A"/><stop offset="0.32" stop-color="#393939"/><stop offset="0.34" stop-color="#393939"/><stop offset="0.36" stop-color="#383838"/><stop offset="0.38" stop-color="#373737"/><stop offset="0.4" stop-color="#363636"/><stop offset="0.42" stop-color="#353535"/><stop offset="0.44" stop-color="#353535"/><stop offset="0.46" stop-color="#343434"/><stop offset="0.48" stop-color="#333333"/><stop offset="0.5" stop-color="#323232"/><stop offset="0.52" stop-color="#313131"/><stop offset="0.54" stop-color="#2F2F2F"/><stop offset="0.56" stop-color="#2E2E2E"/><stop offset="0.58" stop-color="#2D2D2D"/><stop offset="0.6" stop-color="#2C2C2C"/><stop offset="0.62" stop-color="#2B2B2B"/><stop offset="0.64" stop-color="#292929"/><stop offset="0.66" stop-color="#282828"/><stop offset="0.68" stop-color="#272727"/><stop offset="0.7" stop-color="#252525"/><stop offset="0.72" stop-color="#242424"/><stop offset="0.74" stop-color="#232323"/><stop offset="0.76" stop-color="#212121"/><stop offset="0.78" stop-color="#1F1F1F"/><stop offset="0.8" stop-color="#1E1E1E"/><stop offset="0.82" stop-color="#1C1C1C"/><stop offset="0.84" stop-color="#1B1B1B"/><stop offset="0.86" stop-color="#191919"/><stop offset="0.88" stop-color="#171717"/><stop offset="0.9" stop-color="#161616"/><stop offset="0.92" stop-color="#141414"/><stop offset="0.94" stop-color="#121212"/><stop offset="0.96" stop-color="#101010"/><stop offset="0.98" stop-color="#0E0E0E"/><stop offset="1" stop-color="#0D0D0D"/></linearGradient></defs><g clip-path="url(#clip0)" transform="translate(-2964 -1733)"><path d="M2964 1795.25C2964 1760.87 2991.87 1733 3026.25 1733L3334.75 1733C3369.13 1733 3397 1760.87 3397 1795.25L3397 1930.75C3397 1965.13 3369.13 1993 3334.75 1993L3026.25 1993C2991.87 1993 2964 1965.13 2964 1930.75Z" fill="url(#fill1)" fill-rule="evenodd"/><path d="M3049.86 1825.16 3049.86 1901.84 3068.25 1901.84C3075.54 1901.84 3081.7 1900.17 3086.74 1896.84 3091.77 1893.51 3095.63 1888.91 3098.3 1883.03 3100.97 1877.16 3102.3 1870.59 3102.3 1863.32 3102.3 1855.81 3100.97 1849.18 3098.3 1843.42 3095.63 1837.67 3091.74 1833.19 3086.65 1829.98 3081.55 1826.77 3075.42 1825.16 3068.25 1825.16ZM3260.5 1799 3290.36 1799 3290.36 1901.84 3353 1901.84 3353 1928 3260.5 1928ZM3150.56 1799 3239.78 1799 3239.78 1825.16 3180.42 1825.16 3180.42 1850.24 3231.4 1850.24 3231.4 1874.4 3180.42 1874.4 3180.42 1901.84 3241.42 1901.84 3241.42 1928 3150.56 1928ZM3020 1799 3068.25 1799C3082.46 1799 3094.32 1801.88 3103.85 1807.63 3113.38 1813.38 3120.57 1821.14 3125.43 1830.89 3130.29 1840.64 3132.71 1851.45 3132.71 1863.32 3132.71 1876.4 3130.04 1887.79 3124.7 1897.48 3119.36 1907.17 3111.86 1914.68 3102.21 1920.01 3092.56 1925.34 3081.24 1928 3068.25 1928L3020 1928Z" fill="#FFFFFF" fill-rule="evenodd"/></g></svg>