<svg width="433" height="260" xmlns="http://www.w3.org/2000/svg" xmlns:xlink="http://www.w3.org/1999/xlink" overflow="hidden"><defs><clipPath id="clip0"><rect x="2165" y="1733" width="433" height="260"/></clipPath><linearGradient x1="2208.25" y1="1689.75" x2="2554.75" y2="2036.25" gradientUnits="userSpaceOnUse" spreadMethod="reflect" id="fill1"><stop offset="0" stop-color="#FFC000"/><stop offset="0.02" stop-color="#FEBF00"/><stop offset="0.04" stop-color="#FEBF00"/><stop offset="0.06" stop-color="#FEBF00"/><stop offset="0.08" stop-color="#FEBF00"/><stop offset="0.1" stop-color="#FEBF00"/><stop offset="0.12" stop-color="#FEBF00"/><stop offset="0.14" stop-color="#FDBF00"/><stop offset="0.16" stop-color="#FDBE00"/><stop offset="0.18" stop-color="#FCBE00"/><stop offset="0.2" stop-color="#FCBE00"/><stop offset="0.22" stop-color="#FCBD00"/><stop offset="0.24" stop-color="#FBBD00"/><stop offset="0.26" stop-color="#FABC00"/><stop offset="0.28" stop-color="#FABC00"/><stop offset="0.3" stop-color="#F9BB00"/><stop offset="0.32" stop-color="#F8BB00"/><stop offset="0.34" stop-color="#F8BA00"/><stop offset="0.36" stop-color="#F7BA00"/><stop offset="0.38" stop-color="#F6B900"/><stop offset="0.4" stop-color="#F5B900"/><stop offset="0.42" stop-color="#F4B800"/><stop offset="0.44" stop-color="#F4B700"/><stop offset="0.46" stop-color="#F3B600"/><stop offset="0.48" stop-color="#F2B600"/><stop offset="0.5" stop-color="#F1B500"/><stop offset="0.52" stop-color="#F0B400"/><stop offset="0.54" stop-color="#EEB300"/><stop offset="0.56" stop-color="#EDB200"/><stop offset="0.58" stop-color="#ECB100"/><stop offset="0.6" stop-color="#EBB100"/><stop offset="0.62" stop-color="#EAB000"/><stop offset="0.64" stop-color="#E8AF00"/><stop offset="0.66" stop-color="#E7AE00"/><stop offset="0.68" stop-color="#E6AD00"/><stop offset="0.7" stop-color="#E4AC00"/><stop offset="0.72" stop-color="#E3AA00"/><stop offset="0.74" stop-color="#E2A900"/><stop offset="0.76" stop-color="#E0A800"/><stop offset="0.78" stop-color="#DEA700"/><stop offset="0.8" stop-color="#DDA600"/><stop offset="0.82" stop-color="#DBA500"/><stop offset="0.84" stop-color="#DAA300"/><stop offset="0.86" stop-color="#D8A200"/><stop offset="0.88" stop-color="#D6A100"/><stop offset="0.9" stop-color="#D59F00"/><stop offset="0.92" stop-color="#D39E00"/><stop offset="0.94" stop-color="#D19D00"/><stop offset="0.96" stop-color="#CF9B00"/><stop offset="0.98" stop-color="#CD9A00"/><stop offset="1" stop-color="#CC9900"/></linearGradient></defs><g clip-path="url(#clip0)" transform="translate(-2165 -1733)"><path d="M2165 1795.25C2165 1760.87 2192.87 1733 2227.25 1733L2535.75 1733C2570.13 1733 2598 1760.87 2598 1795.25L2598 1930.75C2598 1965.13 2570.13 1993 2535.75 1993L2227.25 1993C2192.87 1993 2165 1965.13 2165 1930.75Z" fill="url(#fill1)" fill-rule="evenodd"/><path d="M2406.08 1805 2438 1805 2438 1864.08C2438 1872.92 2437.48 1880.94 2436.45 1888.14 2435.41 1895.34 2433.31 1901.56 2430.14 1906.8 2426.98 1912.03 2422.23 1916.04 2415.9 1918.83 2409.57 1921.61 2401.12 1923 2390.53 1923 2385.51 1923 2380.93 1922.39 2376.79 1921.18 2372.64 1919.97 2368.82 1918.16 2365.33 1915.74L2372.04 1889.5C2372.69 1889.94 2374.77 1890.87 2378.26 1892.3 2381.75 1893.73 2385.84 1894.45 2390.53 1894.45 2393.92 1894.45 2396.64 1893.88 2398.72 1892.74 2400.79 1891.59 2402.35 1889.82 2403.38 1887.43 2404.42 1885.04 2405.13 1881.91 2405.51 1878.04 2405.89 1874.18 2406.08 1869.47 2406.08 1863.93ZM2324 1805 2355.92 1805 2355.92 1922.17 2324 1922.17Z" fill="#FFFFFF" fill-rule="evenodd"/></g></svg>