<svg width="433" height="260" xmlns="http://www.w3.org/2000/svg" xmlns:xlink="http://www.w3.org/1999/xlink" overflow="hidden"><defs><clipPath id="clip0"><rect x="2165" y="1733" width="433" height="260"/></clipPath><linearGradient x1="2208.25" y1="1689.75" x2="2554.75" y2="2036.25" gradientUnits="userSpaceOnUse" spreadMethod="reflect" id="fill1"><stop offset="0" stop-color="#FFC000"/><stop offset="0.02" stop-color="#FEBF00"/><stop offset="0.04" stop-color="#FEBF00"/><stop offset="0.06" stop-color="#FEBF00"/><stop offset="0.08" stop-color="#FEBF00"/><stop offset="0.1" stop-color="#FEBF00"/><stop offset="0.12" stop-color="#FEBF00"/><stop offset="0.14" stop-color="#FDBF00"/><stop offset="0.16" stop-color="#FDBE00"/><stop offset="0.18" stop-color="#FCBE00"/><stop offset="0.2" stop-color="#FCBE00"/><stop offset="0.22" stop-color="#FCBD00"/><stop offset="0.24" stop-color="#FBBD00"/><stop offset="0.26" stop-color="#FABC00"/><stop offset="0.28" stop-color="#FABC00"/><stop offset="0.3" stop-color="#F9BB00"/><stop offset="0.32" stop-color="#F8BB00"/><stop offset="0.34" stop-color="#F8BA00"/><stop offset="0.36" stop-color="#F7BA00"/><stop offset="0.38" stop-color="#F6B900"/><stop offset="0.4" stop-color="#F5B900"/><stop offset="0.42" stop-color="#F4B800"/><stop offset="0.44" stop-color="#F4B700"/><stop offset="0.46" stop-color="#F3B600"/><stop offset="0.48" stop-color="#F2B600"/><stop offset="0.5" stop-color="#F1B500"/><stop offset="0.52" stop-color="#F0B400"/><stop offset="0.54" stop-color="#EEB300"/><stop offset="0.56" stop-color="#EDB200"/><stop offset="0.58" stop-color="#ECB100"/><stop offset="0.6" stop-color="#EBB100"/><stop offset="0.62" stop-color="#EAB000"/><stop offset="0.64" stop-color="#E8AF00"/><stop offset="0.66" stop-color="#E7AE00"/><stop offset="0.68" stop-color="#E6AD00"/><stop offset="0.7" stop-color="#E4AC00"/><stop offset="0.72" stop-color="#E3AA00"/><stop offset="0.74" stop-color="#E2A900"/><stop offset="0.76" stop-color="#E0A800"/><stop offset="0.78" stop-color="#DEA700"/><stop offset="0.8" stop-color="#DDA600"/><stop offset="0.82" stop-color="#DBA500"/><stop offset="0.84" stop-color="#DAA300"/><stop offset="0.86" stop-color="#D8A200"/><stop offset="0.88" stop-color="#D6A100"/><stop offset="0.9" stop-color="#D59F00"/><stop offset="0.92" stop-color="#D39E00"/><stop offset="0.94" stop-color="#D19D00"/><stop offset="0.96" stop-color="#CF9B00"/><stop offset="0.98" stop-color="#CD9A00"/><stop offset="1" stop-color="#CC9900"/></linearGradient></defs><g clip-path="url(#clip0)" transform="translate(-2165 -1733)"><path d="M2165 1795.25C2165 1760.87 2192.87 1733 2227.25 1733L2535.75 1733C2570.13 1733 2598 1760.87 2598 1795.25L2598 1930.75C2598 1965.13 2570.13 1993 2535.75 1993L2227.25 1993C2192.87 1993 2165 1965.13 2165 1930.75Z" fill="url(#fill1)" fill-rule="evenodd"/><path d="M2328 1805 2355 1805 2355 1922 2328 1922 2328 1805Z" fill="#FFFFFF" fill-rule="evenodd"/><path d="M2409.92 1805 2437 1805 2437 1864.08C2437 1872.81 2436.5 1880.77 2435.51 1887.98 2434.52 1895.18 2432.51 1901.42 2429.49 1906.72 2426.46 1912.01 2421.92 1916.04 2415.86 1918.83 2409.81 1921.61 2401.72 1923 2391.59 1923 2386.42 1923 2381.74 1922.39 2377.56 1921.18 2373.38 1919.97 2369.52 1918.16 2366 1915.74L2371.94 1893.62C2373.04 1894.39 2375.38 1895.47 2378.96 1896.84 2382.54 1898.22 2386.75 1898.9 2391.59 1898.9 2395.45 1898.9 2398.61 1898.25 2401.09 1896.94 2403.56 1895.64 2405.44 1893.65 2406.7 1890.98 2407.97 1888.32 2408.82 1884.83 2409.26 1880.53 2409.7 1876.23 2409.92 1871.03 2409.92 1864.94L2409.92 1805Z" fill="#FFFFFF" fill-rule="evenodd"/></g></svg>