<svg width="433" height="260" xmlns="http://www.w3.org/2000/svg" xmlns:xlink="http://www.w3.org/1999/xlink" overflow="hidden"><defs><clipPath id="clip0"><rect x="2165" y="1733" width="433" height="260"/></clipPath><linearGradient x1="2208.25" y1="1689.75" x2="2554.75" y2="2036.25" gradientUnits="userSpaceOnUse" spreadMethod="reflect" id="fill1"><stop offset="0" stop-color="#FFC000"/><stop offset="0.02" stop-color="#FEBF00"/><stop offset="0.04" stop-color="#FEBF00"/><stop offset="0.06" stop-color="#FEBF00"/><stop offset="0.08" stop-color="#FEBF00"/><stop offset="0.1" stop-color="#FEBF00"/><stop offset="0.12" stop-color="#FEBF00"/><stop offset="0.14" stop-color="#FDBF00"/><stop offset="0.16" stop-color="#FDBE00"/><stop offset="0.18" stop-color="#FCBE00"/><stop offset="0.2" stop-color="#FCBE00"/><stop offset="0.22" stop-color="#FCBD00"/><stop offset="0.24" stop-color="#FBBD00"/><stop offset="0.26" stop-color="#FABC00"/><stop offset="0.28" stop-color="#FABC00"/><stop offset="0.3" stop-color="#F9BB00"/><stop offset="0.32" stop-color="#F8BB00"/><stop offset="0.34" stop-color="#F8BA00"/><stop offset="0.36" stop-color="#F7BA00"/><stop offset="0.38" stop-color="#F6B900"/><stop offset="0.4" stop-color="#F5B900"/><stop offset="0.42" stop-color="#F4B800"/><stop offset="0.44" stop-color="#F4B700"/><stop offset="0.46" stop-color="#F3B600"/><stop offset="0.48" stop-color="#F2B600"/><stop offset="0.5" stop-color="#F1B500"/><stop offset="0.52" stop-color="#F0B400"/><stop offset="0.54" stop-color="#EEB300"/><stop offset="0.56" stop-color="#EDB200"/><stop offset="0.58" stop-color="#ECB100"/><stop offset="0.6" stop-color="#EBB100"/><stop offset="0.62" stop-color="#EAB000"/><stop offset="0.64" stop-color="#E8AF00"/><stop offset="0.66" stop-color="#E7AE00"/><stop offset="0.68" stop-color="#E6AD00"/><stop offset="0.7" stop-color="#E4AC00"/><stop offset="0.72" stop-color="#E3AA00"/><stop offset="0.74" stop-color="#E2A900"/><stop offset="0.76" stop-color="#E0A800"/><stop offset="0.78" stop-color="#DEA700"/><stop offset="0.8" stop-color="#DDA600"/><stop offset="0.82" stop-color="#DBA500"/><stop offset="0.84" stop-color="#DAA300"/><stop offset="0.86" stop-color="#D8A200"/><stop offset="0.88" stop-color="#D6A100"/><stop offset="0.9" stop-color="#D59F00"/><stop offset="0.92" stop-color="#D39E00"/><stop offset="0.94" stop-color="#D19D00"/><stop offset="0.96" stop-color="#CF9B00"/><stop offset="0.98" stop-color="#CD9A00"/><stop offset="1" stop-color="#CC9900"/></linearGradient></defs><g clip-path="url(#clip0)" transform="translate(-2165 -1733)"><path d="M2165 1795.25C2165 1760.87 2192.87 1733 2227.25 1733L2535.75 1733C2570.13 1733 2598 1760.87 2598 1795.25L2598 1930.75C2598 1965.13 2570.13 1993 2535.75 1993L2227.25 1993C2192.87 1993 2165 1965.13 2165 1930.75Z" fill="url(#fill1)" fill-rule="evenodd"/><path d="M2428.15 1825.18 2428.15 1901.91 2446.54 1901.91C2453.83 1901.91 2459.99 1900.24 2465.02 1896.91 2470.06 1893.58 2473.92 1888.97 2476.59 1883.09 2479.26 1877.21 2480.59 1870.64 2480.59 1863.36 2480.59 1855.85 2479.26 1849.21 2476.59 1843.45 2473.92 1837.7 2470.03 1833.21 2464.93 1830 2459.83 1826.79 2453.7 1825.18 2446.54 1825.18ZM2398.29 1799 2446.54 1799C2460.75 1799 2472.61 1801.88 2482.14 1807.64 2491.67 1813.39 2498.86 1821.15 2503.72 1830.91 2508.57 1840.67 2511 1851.49 2511 1863.36 2511 1876.45 2508.33 1887.85 2502.99 1897.55 2497.65 1907.24 2490.15 1914.76 2480.5 1920.09 2470.85 1925.42 2459.53 1928.09 2446.54 1928.09L2398.29 1928.09ZM2345.75 1799 2375.61 1799 2375.61 1864.09C2375.61 1873.71 2375.06 1882.48 2373.97 1890.42 2372.88 1898.35 2370.66 1905.23 2367.33 1911.06 2363.99 1916.89 2358.98 1921.34 2352.3 1924.4 2345.63 1927.47 2336.71 1929 2325.54 1929 2319.83 1929 2314.67 1928.33 2310.06 1927 2305.45 1925.67 2301.2 1923.67 2297.32 1921L2303.87 1896.64C2305.08 1897.48 2307.66 1898.67 2311.61 1900.18 2315.55 1901.7 2320.2 1902.45 2325.54 1902.45 2329.79 1902.45 2333.28 1901.74 2336.01 1900.3 2338.74 1898.86 2340.8 1896.67 2342.2 1893.73 2343.59 1890.79 2344.54 1886.95 2345.02 1882.21 2345.51 1877.48 2345.75 1871.75 2345.75 1865.03ZM2254 1799 2283.86 1799 2283.86 1928.09 2254 1928.09Z" fill="#FFFFFF" fill-rule="evenodd"/></g></svg>