<svg width="432" height="260" xmlns="http://www.w3.org/2000/svg" xmlns:xlink="http://www.w3.org/1999/xlink" overflow="hidden"><defs><clipPath id="clip0"><rect x="2180" y="1020" width="432" height="260"/></clipPath><linearGradient x1="2223" y1="977" x2="2569" y2="1323" gradientUnits="userSpaceOnUse" spreadMethod="reflect" id="fill1"><stop offset="0" stop-color="#7030A0"/><stop offset="0.00900901" stop-color="#6F2F9F"/><stop offset="0.018018" stop-color="#6F2F9F"/><stop offset="0.027027" stop-color="#6F2F9F"/><stop offset="0.036036" stop-color="#6F2F9F"/><stop offset="0.045045" stop-color="#6F2F9F"/><stop offset="0.0540541" stop-color="#6F2F9F"/><stop offset="0.0630631" stop-color="#6F2F9F"/><stop offset="0.0720721" stop-color="#6F2F9F"/><stop offset="0.0810811" stop-color="#6E2F9F"/><stop offset="0.0900901" stop-color="#6E2F9F"/><stop offset="0.0990991" stop-color="#6E2F9F"/><stop offset="0.108108" stop-color="#6E2F9F"/><stop offset="0.117117" stop-color="#6D2F9E"/><stop offset="0.126126" stop-color="#6D2F9E"/><stop offset="0.135135" stop-color="#6D2F9E"/><stop offset="0.144144" stop-color="#6D2F9E"/><stop offset="0.153153" stop-color="#6C2F9E"/><stop offset="0.162162" stop-color="#6C2F9D"/><stop offset="0.171171" stop-color="#6B2F9D"/><stop offset="0.18018" stop-color="#6B2F9D"/><stop offset="0.189189" stop-color="#6B2F9D"/><stop offset="0.198198" stop-color="#6A2F9C"/><stop offset="0.207207" stop-color="#6A2F9C"/><stop offset="0.216216" stop-color="#692F9C"/><stop offset="0.225225" stop-color="#692F9C"/><stop offset="0.234234" stop-color="#682E9B"/><stop offset="0.243243" stop-color="#682E9B"/><stop offset="0.252252" stop-color="#672E9B"/><stop offset="0.261261" stop-color="#662E9A"/><stop offset="0.27027" stop-color="#662E9A"/><stop offset="0.279279" stop-color="#652E9A"/><stop offset="0.288288" stop-color="#652E99"/><stop offset="0.297297" stop-color="#642E99"/><stop offset="0.306306" stop-color="#632E99"/><stop offset="0.315315" stop-color="#632E98"/><stop offset="0.324324" stop-color="#622E98"/><stop offset="0.333333" stop-color="#612D97"/><stop offset="0.342342" stop-color="#602D97"/><stop offset="0.351351" stop-color="#602D96"/><stop offset="0.36036" stop-color="#5F2D96"/><stop offset="0.369369" stop-color="#5E2D96"/><stop offset="0.378378" stop-color="#5D2D95"/><stop offset="0.387387" stop-color="#5D2D95"/><stop offset="0.396396" stop-color="#5C2D94"/><stop offset="0.405405" stop-color="#5B2D94"/><stop offset="0.414414" stop-color="#5A2C93"/><stop offset="0.423423" stop-color="#592C93"/><stop offset="0.432432" stop-color="#582C92"/><stop offset="0.441441" stop-color="#572C92"/><stop offset="0.45045" stop-color="#562C91"/><stop offset="0.459459" stop-color="#552C91"/><stop offset="0.468468" stop-color="#542C90"/><stop offset="0.477477" stop-color="#532B8F"/><stop offset="0.486486" stop-color="#522B8F"/><stop offset="0.495495" stop-color="#512B8E"/><stop offset="0.504505" stop-color="#502B8E"/><stop offset="0.513514" stop-color="#4F2B8D"/><stop offset="0.522523" stop-color="#4E2B8D"/><stop offset="0.531532" stop-color="#4D2B8C"/><stop offset="0.540541" stop-color="#4C2A8B"/><stop offset="0.54955" stop-color="#4B2A8B"/><stop offset="0.558559" stop-color="#4A2A8A"/><stop offset="0.567568" stop-color="#492A89"/><stop offset="0.576577" stop-color="#482A89"/><stop offset="0.585586" stop-color="#462A88"/><stop offset="0.594595" stop-color="#452987"/><stop offset="0.603604" stop-color="#442987"/><stop offset="0.612613" stop-color="#432986"/><stop offset="0.621622" stop-color="#422985"/><stop offset="0.630631" stop-color="#402985"/><stop offset="0.63964" stop-color="#3F2984"/><stop offset="0.648649" stop-color="#3E2883"/><stop offset="0.657658" stop-color="#3C2882"/><stop offset="0.666667" stop-color="#3B2882"/><stop offset="0.675676" stop-color="#3A2881"/><stop offset="0.684685" stop-color="#382880"/><stop offset="0.693694" stop-color="#37277F"/><stop offset="0.702703" stop-color="#36277E"/><stop offset="0.711712" stop-color="#34277E"/><stop offset="0.720721" stop-color="#33277D"/><stop offset="0.72973" stop-color="#31277C"/><stop offset="0.738739" stop-color="#30267B"/><stop offset="0.747748" stop-color="#2F267A"/><stop offset="0.756757" stop-color="#2D267A"/><stop offset="0.765766" stop-color="#2C2679"/><stop offset="0.774775" stop-color="#2A2678"/><stop offset="0.783784" stop-color="#292577"/><stop offset="0.792793" stop-color="#272576"/><stop offset="0.801802" stop-color="#252575"/><stop offset="0.810811" stop-color="#242574"/><stop offset="0.81982" stop-color="#222473"/><stop offset="0.828829" stop-color="#212472"/><stop offset="0.837838" stop-color="#1F2472"/><stop offset="0.846847" stop-color="#1D2471"/><stop offset="0.855856" stop-color="#1C2470"/><stop offset="0.864865" stop-color="#1A236F"/><stop offset="0.873874" stop-color="#19236E"/><stop offset="0.882883" stop-color="#17236D"/><stop offset="0.891892" stop-color="#15236C"/><stop offset="0.900901" stop-color="#13226B"/><stop offset="0.90991" stop-color="#12226A"/><stop offset="0.918919" stop-color="#102269"/><stop offset="0.927928" stop-color="#0E2268"/><stop offset="0.936937" stop-color="#0C2167"/><stop offset="0.945946" stop-color="#0B2166"/><stop offset="0.954955" stop-color="#092165"/><stop offset="0.963964" stop-color="#072164"/><stop offset="0.972973" stop-color="#052063"/><stop offset="0.981982" stop-color="#032062"/><stop offset="0.990991" stop-color="#012061"/><stop offset="1" stop-color="#002060"/></linearGradient></defs><g clip-path="url(#clip0)" transform="translate(-2180 -1020)"><path d="M2180 1082.25C2180 1047.87 2207.87 1020 2242.25 1020L2549.75 1020C2584.13 1020 2612 1047.87 2612 1082.25L2612 1217.75C2612 1252.13 2584.13 1280 2549.75 1280L2242.25 1280C2207.87 1280 2180 1252.13 2180 1217.75Z" fill="url(#fill1)" fill-rule="evenodd"/><path d="M2308.23 1122.71C2304.09 1122.71 2300.51 1123.5 2297.51 1125.09 2294.5 1126.67 2292.01 1128.78 2290.04 1131.4 2288.07 1134.03 2286.61 1137 2285.68 1140.32 2284.74 1143.64 2284.27 1147.03 2284.27 1150.5 2284.27 1154.07 2284.77 1157.51 2285.75 1160.83 2286.74 1164.15 2288.22 1167.12 2290.19 1169.74 2292.16 1172.37 2294.65 1174.45 2297.65 1175.99 2300.66 1177.52 2304.23 1178.29 2308.37 1178.29 2312.51 1178.29 2316.11 1177.5 2319.17 1175.91 2322.22 1174.33 2324.71 1172.17 2326.63 1169.45 2328.55 1166.72 2329.98 1163.7 2330.92 1160.38 2331.86 1157.06 2332.32 1153.67 2332.32 1150.2 2332.32 1146.64 2331.83 1143.22 2330.85 1139.95 2329.86 1136.68 2328.38 1133.73 2326.41 1131.11 2324.44 1128.48 2321.93 1126.42 2318.87 1124.94 2315.81 1123.45 2312.27 1122.71 2308.23 1122.71ZM2460.19 1097.74 2533.67 1097.74 2533.67 1123.01 2489.02 1123.01 2489.02 1137.87 2527.16 1137.87 2527.16 1161.35 2489.02 1161.35 2489.02 1177.99 2535 1177.99 2535 1203.26 2460.19 1203.26ZM2374.23 1097.74 2403.06 1097.74 2403.06 1177.99 2450.67 1177.99 2450.67 1203.26 2374.23 1203.26ZM2308.67 1097C2316.65 1097 2323.9 1098.51 2330.4 1101.53 2336.91 1104.55 2342.48 1108.64 2347.11 1113.79 2351.74 1118.94 2355.31 1124.72 2357.83 1131.11 2360.34 1137.5 2361.6 1144.06 2361.6 1150.8 2361.6 1157.73 2360.29 1164.37 2357.68 1170.71 2355.07 1177.05 2351.37 1182.72 2346.59 1187.73 2341.81 1192.73 2336.17 1196.69 2329.66 1199.62 2323.16 1202.54 2315.96 1204 2308.08 1204 2300.09 1204 2292.85 1202.49 2286.34 1199.47 2279.84 1196.45 2274.24 1192.38 2269.56 1187.28 2264.88 1182.18 2261.28 1176.43 2258.77 1170.04 2256.26 1163.65 2255 1157.04 2255 1150.2 2255 1143.17 2256.33 1136.48 2258.99 1130.14 2261.65 1123.8 2265.37 1118.13 2270.15 1113.12 2274.94 1108.12 2280.6 1104.18 2287.16 1101.31 2293.71 1098.44 2300.88 1097 2308.67 1097Z" fill="#FFFFFF" fill-rule="evenodd"/></g></svg>