<svg width="432" height="260" xmlns="http://www.w3.org/2000/svg" xmlns:xlink="http://www.w3.org/1999/xlink" overflow="hidden"><defs><clipPath id="clip0"><rect x="2180" y="1020" width="432" height="260"/></clipPath><linearGradient x1="2223" y1="977" x2="2569" y2="1323" gradientUnits="userSpaceOnUse" spreadMethod="reflect" id="fill1"><stop offset="0" stop-color="#7030A0"/><stop offset="0.00900901" stop-color="#6F2F9F"/><stop offset="0.018018" stop-color="#6F2F9F"/><stop offset="0.027027" stop-color="#6F2F9F"/><stop offset="0.036036" stop-color="#6F2F9F"/><stop offset="0.045045" stop-color="#6F2F9F"/><stop offset="0.0540541" stop-color="#6F2F9F"/><stop offset="0.0630631" stop-color="#6F2F9F"/><stop offset="0.0720721" stop-color="#6F2F9F"/><stop offset="0.0810811" stop-color="#6E2F9F"/><stop offset="0.0900901" stop-color="#6E2F9F"/><stop offset="0.0990991" stop-color="#6E2F9F"/><stop offset="0.108108" stop-color="#6E2F9F"/><stop offset="0.117117" stop-color="#6D2F9E"/><stop offset="0.126126" stop-color="#6D2F9E"/><stop offset="0.135135" stop-color="#6D2F9E"/><stop offset="0.144144" stop-color="#6D2F9E"/><stop offset="0.153153" stop-color="#6C2F9E"/><stop offset="0.162162" stop-color="#6C2F9D"/><stop offset="0.171171" stop-color="#6B2F9D"/><stop offset="0.18018" stop-color="#6B2F9D"/><stop offset="0.189189" stop-color="#6B2F9D"/><stop offset="0.198198" stop-color="#6A2F9C"/><stop offset="0.207207" stop-color="#6A2F9C"/><stop offset="0.216216" stop-color="#692F9C"/><stop offset="0.225225" stop-color="#692F9C"/><stop offset="0.234234" stop-color="#682E9B"/><stop offset="0.243243" stop-color="#682E9B"/><stop offset="0.252252" stop-color="#672E9B"/><stop offset="0.261261" stop-color="#662E9A"/><stop offset="0.27027" stop-color="#662E9A"/><stop offset="0.279279" stop-color="#652E9A"/><stop offset="0.288288" stop-color="#652E99"/><stop offset="0.297297" stop-color="#642E99"/><stop offset="0.306306" stop-color="#632E99"/><stop offset="0.315315" stop-color="#632E98"/><stop offset="0.324324" stop-color="#622E98"/><stop offset="0.333333" stop-color="#612D97"/><stop offset="0.342342" stop-color="#602D97"/><stop offset="0.351351" stop-color="#602D96"/><stop offset="0.36036" stop-color="#5F2D96"/><stop offset="0.369369" stop-color="#5E2D96"/><stop offset="0.378378" stop-color="#5D2D95"/><stop offset="0.387387" stop-color="#5D2D95"/><stop offset="0.396396" stop-color="#5C2D94"/><stop offset="0.405405" stop-color="#5B2D94"/><stop offset="0.414414" stop-color="#5A2C93"/><stop offset="0.423423" stop-color="#592C93"/><stop offset="0.432432" stop-color="#582C92"/><stop offset="0.441441" stop-color="#572C92"/><stop offset="0.45045" stop-color="#562C91"/><stop offset="0.459459" stop-color="#552C91"/><stop offset="0.468468" stop-color="#542C90"/><stop offset="0.477477" stop-color="#532B8F"/><stop offset="0.486486" stop-color="#522B8F"/><stop offset="0.495495" stop-color="#512B8E"/><stop offset="0.504505" stop-color="#502B8E"/><stop offset="0.513514" stop-color="#4F2B8D"/><stop offset="0.522523" stop-color="#4E2B8D"/><stop offset="0.531532" stop-color="#4D2B8C"/><stop offset="0.540541" stop-color="#4C2A8B"/><stop offset="0.54955" stop-color="#4B2A8B"/><stop offset="0.558559" stop-color="#4A2A8A"/><stop offset="0.567568" stop-color="#492A89"/><stop offset="0.576577" stop-color="#482A89"/><stop offset="0.585586" stop-color="#462A88"/><stop offset="0.594595" stop-color="#452987"/><stop offset="0.603604" stop-color="#442987"/><stop offset="0.612613" stop-color="#432986"/><stop offset="0.621622" stop-color="#422985"/><stop offset="0.630631" stop-color="#402985"/><stop offset="0.63964" stop-color="#3F2984"/><stop offset="0.648649" stop-color="#3E2883"/><stop offset="0.657658" stop-color="#3C2882"/><stop offset="0.666667" stop-color="#3B2882"/><stop offset="0.675676" stop-color="#3A2881"/><stop offset="0.684685" stop-color="#382880"/><stop offset="0.693694" stop-color="#37277F"/><stop offset="0.702703" stop-color="#36277E"/><stop offset="0.711712" stop-color="#34277E"/><stop offset="0.720721" stop-color="#33277D"/><stop offset="0.72973" stop-color="#31277C"/><stop offset="0.738739" stop-color="#30267B"/><stop offset="0.747748" stop-color="#2F267A"/><stop offset="0.756757" stop-color="#2D267A"/><stop offset="0.765766" stop-color="#2C2679"/><stop offset="0.774775" stop-color="#2A2678"/><stop offset="0.783784" stop-color="#292577"/><stop offset="0.792793" stop-color="#272576"/><stop offset="0.801802" stop-color="#252575"/><stop offset="0.810811" stop-color="#242574"/><stop offset="0.81982" stop-color="#222473"/><stop offset="0.828829" stop-color="#212472"/><stop offset="0.837838" stop-color="#1F2472"/><stop offset="0.846847" stop-color="#1D2471"/><stop offset="0.855856" stop-color="#1C2470"/><stop offset="0.864865" stop-color="#1A236F"/><stop offset="0.873874" stop-color="#19236E"/><stop offset="0.882883" stop-color="#17236D"/><stop offset="0.891892" stop-color="#15236C"/><stop offset="0.900901" stop-color="#13226B"/><stop offset="0.90991" stop-color="#12226A"/><stop offset="0.918919" stop-color="#102269"/><stop offset="0.927928" stop-color="#0E2268"/><stop offset="0.936937" stop-color="#0C2167"/><stop offset="0.945946" stop-color="#0B2166"/><stop offset="0.954955" stop-color="#092165"/><stop offset="0.963964" stop-color="#072164"/><stop offset="0.972973" stop-color="#052063"/><stop offset="0.981982" stop-color="#032062"/><stop offset="0.990991" stop-color="#012061"/><stop offset="1" stop-color="#002060"/></linearGradient></defs><g clip-path="url(#clip0)" transform="translate(-2180 -1020)"><path d="M2180 1082.25C2180 1047.87 2207.87 1020 2242.25 1020L2549.75 1020C2584.13 1020 2612 1047.87 2612 1082.25L2612 1217.75C2612 1252.13 2584.13 1280 2549.75 1280L2242.25 1280C2207.87 1280 2180 1252.13 2180 1217.75Z" fill="url(#fill1)" fill-rule="evenodd"/><path d="M2288.87 1085C2298.49 1085 2307.23 1086.85 2315.09 1090.55 2322.94 1094.25 2329.7 1099.25 2335.37 1105.56 2341.03 1111.87 2345.39 1118.93 2348.43 1126.76 2351.48 1134.58 2353 1142.55 2353 1150.68 2353 1159.29 2351.42 1167.48 2348.25 1175.24 2345.08 1183.01 2340.57 1189.95 2334.73 1196.08 2328.88 1202.2 2322.03 1207.05 2314.17 1210.63 2306.32 1214.21 2297.7 1216 2288.32 1216 2278.57 1216 2269.77 1214.15 2261.91 1210.45 2254.06 1206.75 2247.3 1201.78 2241.63 1195.53 2235.97 1189.28 2231.61 1182.25 2228.57 1174.43 2225.52 1166.6 2224 1158.51 2224 1150.14 2224 1141.52 2225.61 1133.34 2228.84 1125.57 2232.07 1117.81 2236.58 1110.87 2242.36 1104.74 2248.15 1098.62 2255 1093.79 2262.92 1090.28 2270.84 1086.76 2279.49 1085 2288.87 1085ZM2288.5 1111.56C2282.77 1111.56 2277.81 1112.66 2273.61 1114.84 2269.41 1117.02 2265.87 1119.96 2263.01 1123.66 2260.15 1127.36 2258.02 1131.55 2256.62 1136.22 2255.21 1140.89 2254.51 1145.65 2254.51 1150.5 2254.51 1155.47 2255.25 1160.29 2256.71 1164.96 2258.17 1169.63 2260.33 1173.79 2263.19 1177.43 2266.06 1181.07 2269.62 1183.98 2273.88 1186.16 2278.15 1188.34 2283.02 1189.44 2288.5 1189.44 2294.23 1189.44 2299.22 1188.31 2303.48 1186.07 2307.75 1183.83 2311.28 1180.82 2314.08 1177.06 2316.88 1173.3 2318.98 1169.09 2320.38 1164.42 2321.79 1159.75 2322.49 1154.99 2322.49 1150.14 2322.49 1145.16 2321.75 1140.37 2320.29 1135.76 2318.83 1131.15 2316.64 1127 2313.72 1123.3 2310.79 1119.6 2307.2 1116.72 2302.93 1114.66 2298.67 1112.59 2293.86 1111.56 2288.5 1111.56Z" fill="#FFFFFF" fill-rule="evenodd"/><path d="M2369 1086 2399.02 1086 2399.02 1188.84 2462 1188.84 2462 1215 2369 1215 2369 1086Z" fill="#FFFFFF" fill-rule="evenodd"/><path d="M2476 1086 2565.36 1086 2565.36 1112.16 2505.91 1112.16 2505.91 1137.24 2556.97 1137.24 2556.97 1161.4 2505.91 1161.4 2505.91 1188.84 2567 1188.84 2567 1215 2476 1215 2476 1086Z" fill="#FFFFFF" fill-rule="evenodd"/></g></svg>