<svg width="432" height="260" xmlns="http://www.w3.org/2000/svg" xmlns:xlink="http://www.w3.org/1999/xlink" overflow="hidden"><defs><clipPath id="clip0"><rect x="2180" y="1020" width="432" height="260"/></clipPath><linearGradient x1="2223" y1="977" x2="2569" y2="1323" gradientUnits="userSpaceOnUse" spreadMethod="reflect" id="fill1"><stop offset="0" stop-color="#7030A0"/><stop offset="0.00900901" stop-color="#6F2F9F"/><stop offset="0.018018" stop-color="#6F2F9F"/><stop offset="0.027027" stop-color="#6F2F9F"/><stop offset="0.036036" stop-color="#6F2F9F"/><stop offset="0.045045" stop-color="#6F2F9F"/><stop offset="0.0540541" stop-color="#6F2F9F"/><stop offset="0.0630631" stop-color="#6F2F9F"/><stop offset="0.0720721" stop-color="#6F2F9F"/><stop offset="0.0810811" stop-color="#6E2F9F"/><stop offset="0.0900901" stop-color="#6E2F9F"/><stop offset="0.0990991" stop-color="#6E2F9F"/><stop offset="0.108108" stop-color="#6E2F9F"/><stop offset="0.117117" stop-color="#6D2F9E"/><stop offset="0.126126" stop-color="#6D2F9E"/><stop offset="0.135135" stop-color="#6D2F9E"/><stop offset="0.144144" stop-color="#6D2F9E"/><stop offset="0.153153" stop-color="#6C2F9E"/><stop offset="0.162162" stop-color="#6C2F9D"/><stop offset="0.171171" stop-color="#6B2F9D"/><stop offset="0.18018" stop-color="#6B2F9D"/><stop offset="0.189189" stop-color="#6B2F9D"/><stop offset="0.198198" stop-color="#6A2F9C"/><stop offset="0.207207" stop-color="#6A2F9C"/><stop offset="0.216216" stop-color="#692F9C"/><stop offset="0.225225" stop-color="#692F9C"/><stop offset="0.234234" stop-color="#682E9B"/><stop offset="0.243243" stop-color="#682E9B"/><stop offset="0.252252" stop-color="#672E9B"/><stop offset="0.261261" stop-color="#662E9A"/><stop offset="0.27027" stop-color="#662E9A"/><stop offset="0.279279" stop-color="#652E9A"/><stop offset="0.288288" stop-color="#652E99"/><stop offset="0.297297" stop-color="#642E99"/><stop offset="0.306306" stop-color="#632E99"/><stop offset="0.315315" stop-color="#632E98"/><stop offset="0.324324" stop-color="#622E98"/><stop offset="0.333333" stop-color="#612D97"/><stop offset="0.342342" stop-color="#602D97"/><stop offset="0.351351" stop-color="#602D96"/><stop offset="0.36036" stop-color="#5F2D96"/><stop offset="0.369369" stop-color="#5E2D96"/><stop offset="0.378378" stop-color="#5D2D95"/><stop offset="0.387387" stop-color="#5D2D95"/><stop offset="0.396396" stop-color="#5C2D94"/><stop offset="0.405405" stop-color="#5B2D94"/><stop offset="0.414414" stop-color="#5A2C93"/><stop offset="0.423423" stop-color="#592C93"/><stop offset="0.432432" stop-color="#582C92"/><stop offset="0.441441" stop-color="#572C92"/><stop offset="0.45045" stop-color="#562C91"/><stop offset="0.459459" stop-color="#552C91"/><stop offset="0.468468" stop-color="#542C90"/><stop offset="0.477477" stop-color="#532B8F"/><stop offset="0.486486" stop-color="#522B8F"/><stop offset="0.495495" stop-color="#512B8E"/><stop offset="0.504505" stop-color="#502B8E"/><stop offset="0.513514" stop-color="#4F2B8D"/><stop offset="0.522523" stop-color="#4E2B8D"/><stop offset="0.531532" stop-color="#4D2B8C"/><stop offset="0.540541" stop-color="#4C2A8B"/><stop offset="0.54955" stop-color="#4B2A8B"/><stop offset="0.558559" stop-color="#4A2A8A"/><stop offset="0.567568" stop-color="#492A89"/><stop offset="0.576577" stop-color="#482A89"/><stop offset="0.585586" stop-color="#462A88"/><stop offset="0.594595" stop-color="#452987"/><stop offset="0.603604" stop-color="#442987"/><stop offset="0.612613" stop-color="#432986"/><stop offset="0.621622" stop-color="#422985"/><stop offset="0.630631" stop-color="#402985"/><stop offset="0.63964" stop-color="#3F2984"/><stop offset="0.648649" stop-color="#3E2883"/><stop offset="0.657658" stop-color="#3C2882"/><stop offset="0.666667" stop-color="#3B2882"/><stop offset="0.675676" stop-color="#3A2881"/><stop offset="0.684685" stop-color="#382880"/><stop offset="0.693694" stop-color="#37277F"/><stop offset="0.702703" stop-color="#36277E"/><stop offset="0.711712" stop-color="#34277E"/><stop offset="0.720721" stop-color="#33277D"/><stop offset="0.72973" stop-color="#31277C"/><stop offset="0.738739" stop-color="#30267B"/><stop offset="0.747748" stop-color="#2F267A"/><stop offset="0.756757" stop-color="#2D267A"/><stop offset="0.765766" stop-color="#2C2679"/><stop offset="0.774775" stop-color="#2A2678"/><stop offset="0.783784" stop-color="#292577"/><stop offset="0.792793" stop-color="#272576"/><stop offset="0.801802" stop-color="#252575"/><stop offset="0.810811" stop-color="#242574"/><stop offset="0.81982" stop-color="#222473"/><stop offset="0.828829" stop-color="#212472"/><stop offset="0.837838" stop-color="#1F2472"/><stop offset="0.846847" stop-color="#1D2471"/><stop offset="0.855856" stop-color="#1C2470"/><stop offset="0.864865" stop-color="#1A236F"/><stop offset="0.873874" stop-color="#19236E"/><stop offset="0.882883" stop-color="#17236D"/><stop offset="0.891892" stop-color="#15236C"/><stop offset="0.900901" stop-color="#13226B"/><stop offset="0.90991" stop-color="#12226A"/><stop offset="0.918919" stop-color="#102269"/><stop offset="0.927928" stop-color="#0E2268"/><stop offset="0.936937" stop-color="#0C2167"/><stop offset="0.945946" stop-color="#0B2166"/><stop offset="0.954955" stop-color="#092165"/><stop offset="0.963964" stop-color="#072164"/><stop offset="0.972973" stop-color="#052063"/><stop offset="0.981982" stop-color="#032062"/><stop offset="0.990991" stop-color="#012061"/><stop offset="1" stop-color="#002060"/></linearGradient></defs><g clip-path="url(#clip0)" transform="translate(-2180 -1020)"><path d="M2180 1082.25C2180 1047.87 2207.87 1020 2242.25 1020L2549.75 1020C2584.13 1020 2612 1047.87 2612 1082.25L2612 1217.75C2612 1252.13 2584.13 1280 2549.75 1280L2242.25 1280C2207.87 1280 2180 1252.13 2180 1217.75Z" fill="url(#fill1)" fill-rule="evenodd"/><path d="M2296.83 1091C2305.56 1091 2313.49 1092.68 2320.61 1096.04 2327.74 1099.4 2333.87 1103.95 2339.01 1109.68 2344.15 1115.41 2348.09 1121.82 2350.86 1128.93 2353.62 1136.04 2355 1143.28 2355 1150.67 2355 1158.49 2353.56 1165.93 2350.69 1172.98 2347.82 1180.03 2343.73 1186.34 2338.43 1191.9 2333.12 1197.47 2326.91 1201.87 2319.78 1205.12 2312.66 1208.37 2304.84 1210 2296.33 1210 2287.5 1210 2279.51 1208.32 2272.39 1204.96 2265.26 1201.6 2259.13 1197.08 2253.99 1191.41 2248.85 1185.73 2244.91 1179.34 2242.14 1172.23 2239.38 1165.13 2238 1157.77 2238 1150.17 2238 1142.35 2239.46 1134.91 2242.39 1127.86 2245.32 1120.81 2249.41 1114.5 2254.66 1108.93 2259.9 1103.37 2266.12 1098.99 2273.3 1095.79 2280.48 1092.6 2288.32 1091 2296.83 1091ZM2296.5 1115.13C2291.31 1115.13 2286.81 1116.12 2282.99 1118.11 2279.18 1120.09 2275.98 1122.76 2273.38 1126.12 2270.79 1129.48 2268.85 1133.28 2267.58 1137.53 2266.31 1141.77 2265.68 1146.09 2265.68 1150.5 2265.68 1155.02 2266.34 1159.4 2267.66 1163.64 2268.99 1167.88 2270.95 1171.66 2273.55 1174.96 2276.14 1178.27 2279.38 1180.91 2283.24 1182.89 2287.11 1184.88 2291.53 1185.87 2296.5 1185.87 2301.69 1185.87 2306.22 1184.85 2310.09 1182.81 2313.96 1180.77 2317.16 1178.05 2319.7 1174.63 2322.24 1171.21 2324.15 1167.39 2325.42 1163.14 2326.69 1158.9 2327.32 1154.58 2327.32 1150.17 2327.32 1145.65 2326.66 1141.3 2325.34 1137.11 2324.01 1132.93 2322.02 1129.15 2319.37 1125.79 2316.72 1122.43 2313.46 1119.81 2309.59 1117.94 2305.73 1116.07 2301.36 1115.13 2296.5 1115.13Z" fill="#FFFFFF" fill-rule="evenodd"/><path d="M2369 1092 2396.12 1092 2396.12 1185.27 2453 1185.27 2453 1209 2369 1209 2369 1092Z" fill="#FFFFFF" fill-rule="evenodd"/><path d="M2465 1092 2546.5 1092 2546.5 1115.73 2492.28 1115.73 2492.28 1138.47 2538.85 1138.47 2538.85 1160.39 2492.28 1160.39 2492.28 1185.27 2548 1185.27 2548 1209 2465 1209 2465 1092Z" fill="#FFFFFF" fill-rule="evenodd"/></g></svg>