<svg width="432" height="260" xmlns="http://www.w3.org/2000/svg" xmlns:xlink="http://www.w3.org/1999/xlink" overflow="hidden"><defs><clipPath id="clip0"><rect x="910" y="610" width="432" height="260"/></clipPath><linearGradient x1="953" y1="567" x2="1299" y2="913" gradientUnits="userSpaceOnUse" spreadMethod="reflect" id="fill1"><stop offset="0" stop-color="#DDD800"/><stop offset="0.016129" stop-color="#DCD700"/><stop offset="0.0322581" stop-color="#DCD700"/><stop offset="0.0483871" stop-color="#DCD700"/><stop offset="0.0645161" stop-color="#DCD700"/><stop offset="0.0806452" stop-color="#DCD700"/><stop offset="0.0967742" stop-color="#DCD700"/><stop offset="0.112903" stop-color="#DCD600"/><stop offset="0.129032" stop-color="#DCD600"/><stop offset="0.145161" stop-color="#DCD600"/><stop offset="0.16129" stop-color="#DCD500"/><stop offset="0.177419" stop-color="#DCD500"/><stop offset="0.193548" stop-color="#DCD500"/><stop offset="0.209677" stop-color="#DCD400"/><stop offset="0.225806" stop-color="#DBD400"/><stop offset="0.241935" stop-color="#DBD300"/><stop offset="0.258065" stop-color="#DBD300"/><stop offset="0.274194" stop-color="#DBD200"/><stop offset="0.290323" stop-color="#DBD100"/><stop offset="0.306452" stop-color="#DBD100"/><stop offset="0.322581" stop-color="#DAD000"/><stop offset="0.33871" stop-color="#DACF00"/><stop offset="0.354839" stop-color="#DACE00"/><stop offset="0.370968" stop-color="#DACE00"/><stop offset="0.387097" stop-color="#DACD00"/><stop offset="0.403226" stop-color="#D9CC00"/><stop offset="0.419355" stop-color="#D9CB00"/><stop offset="0.435484" stop-color="#D9CA00"/><stop offset="0.451613" stop-color="#D9C900"/><stop offset="0.467742" stop-color="#D8C800"/><stop offset="0.483871" stop-color="#D8C700"/><stop offset="0.5" stop-color="#D8C600"/><stop offset="0.516129" stop-color="#D8C500"/><stop offset="0.532258" stop-color="#D7C400"/><stop offset="0.548387" stop-color="#D7C300"/><stop offset="0.564516" stop-color="#D7C200"/><stop offset="0.580645" stop-color="#D6C100"/><stop offset="0.596774" stop-color="#D6C000"/><stop offset="0.612903" stop-color="#D6BE00"/><stop offset="0.629032" stop-color="#D5BD00"/><stop offset="0.645161" stop-color="#D5BC00"/><stop offset="0.66129" stop-color="#D5BA00"/><stop offset="0.677419" stop-color="#D4B900"/><stop offset="0.693548" stop-color="#D4B800"/><stop offset="0.709677" stop-color="#D4B600"/><stop offset="0.725806" stop-color="#D3B500"/><stop offset="0.741935" stop-color="#D3B400"/><stop offset="0.758065" stop-color="#D2B200"/><stop offset="0.774194" stop-color="#D2B100"/><stop offset="0.790323" stop-color="#D2AF00"/><stop offset="0.806452" stop-color="#D1AD00"/><stop offset="0.822581" stop-color="#D1AC00"/><stop offset="0.83871" stop-color="#D0AA00"/><stop offset="0.854839" stop-color="#D0A900"/><stop offset="0.870968" stop-color="#CFA700"/><stop offset="0.887097" stop-color="#CFA500"/><stop offset="0.903226" stop-color="#CEA300"/><stop offset="0.919355" stop-color="#CEA200"/><stop offset="0.935484" stop-color="#CDA000"/><stop offset="0.951613" stop-color="#CD9E00"/><stop offset="0.967742" stop-color="#CD9C00"/><stop offset="0.983871" stop-color="#CC9A00"/><stop offset="1" stop-color="#CC9900"/></linearGradient></defs><g clip-path="url(#clip0)" transform="translate(-910 -610)"><path d="M910 672.252C910 637.871 937.871 610 972.252 610L1279.75 610C1314.13 610 1342 637.871 1342 672.252L1342 807.748C1342 842.129 1314.13 870 1279.75 870L972.252 870C937.871 870 910 842.129 910 807.748Z" fill="url(#fill1)" fill-rule="evenodd"/><path d="M1120.96 715.856 1111.22 752.661 1130.7 752.661ZM1016.78 712.764 1016.78 735.142 1031.98 735.142C1033.16 735.142 1034.29 734.798 1035.37 734.111 1036.46 733.424 1037.37 732.247 1038.1 730.578 1038.84 728.909 1039.21 726.701 1039.21 723.953 1039.21 721.008 1038.79 718.727 1037.96 717.107 1037.12 715.488 1036.09 714.359 1034.86 713.721 1033.63 713.083 1032.42 712.764 1031.24 712.764ZM1104.87 687.736 1137.05 687.736 1170.4 792.264 1141.18 792.264 1135.76 771.8 1106.16 771.8 1100.74 792.264 1071.37 792.264ZM988 687.736 1033.16 687.736C1038.28 687.736 1043 688.767 1047.33 690.828 1051.66 692.889 1055.4 695.662 1058.55 699.146 1061.69 702.63 1064.13 706.532 1065.85 710.85 1067.57 715.169 1068.43 719.536 1068.43 723.953 1068.43 730.136 1066.98 735.976 1064.08 741.472 1061.18 746.969 1057.14 751.459 1051.98 754.943 1046.81 758.427 1040.79 760.169 1033.9 760.169L1016.78 760.169 1016.78 792.264 988 792.264ZM1228.02 687C1238.06 687 1246.81 689.086 1254.29 693.257 1261.77 697.429 1267.33 702.949 1270.97 709.82L1248.98 725.425C1247.7 721.99 1245.85 719.34 1243.44 717.475 1241.03 715.611 1238.42 714.31 1235.62 713.574 1232.82 712.838 1230.09 712.47 1227.43 712.47 1223.3 712.47 1219.73 713.28 1216.73 714.899 1213.73 716.518 1211.27 718.653 1209.35 721.303 1207.43 723.953 1206 726.897 1205.07 730.136 1204.14 733.375 1203.67 736.614 1203.67 739.853 1203.67 743.484 1204.21 746.969 1205.29 750.306 1206.37 753.642 1207.95 756.612 1210.01 759.213 1212.08 761.813 1214.61 763.85 1217.61 765.322 1220.62 766.794 1223.99 767.531 1227.72 767.531 1230.38 767.531 1233.09 767.114 1235.84 766.279 1238.6 765.445 1241.11 764.095 1243.37 762.23 1245.63 760.366 1247.35 757.863 1248.53 754.722L1272 768.708C1269.93 773.812 1266.49 778.18 1261.67 781.811 1256.85 785.443 1251.39 788.215 1245.29 790.129 1239.19 792.043 1233.14 793 1227.13 793 1219.36 793 1212.25 791.454 1205.81 788.362 1199.36 785.271 1193.8 781.149 1189.13 775.996 1184.46 770.843 1180.84 765.052 1178.28 758.624 1175.73 752.195 1174.45 745.644 1174.45 738.97 1174.45 732.59 1175.65 726.333 1178.06 720.199 1180.47 714.065 1183.99 708.495 1188.61 703.489 1193.24 698.484 1198.87 694.484 1205.51 691.491 1212.15 688.497 1219.66 687 1228.02 687Z" fill="#FFFFFF" fill-rule="evenodd"/></g></svg>