<svg width="432" height="260" xmlns="http://www.w3.org/2000/svg" xmlns:xlink="http://www.w3.org/1999/xlink" overflow="hidden"><defs><clipPath id="clip0"><rect x="910" y="610" width="432" height="260"/></clipPath><linearGradient x1="953" y1="567" x2="1299" y2="913" gradientUnits="userSpaceOnUse" spreadMethod="reflect" id="fill1"><stop offset="0" stop-color="#AEDE00"/><stop offset="0.0147059" stop-color="#AEDD00"/><stop offset="0.0294118" stop-color="#AFDD00"/><stop offset="0.0441176" stop-color="#B0DD00"/><stop offset="0.0588235" stop-color="#B1DD00"/><stop offset="0.0735294" stop-color="#B2DD00"/><stop offset="0.0882353" stop-color="#B2DD00"/><stop offset="0.102941" stop-color="#B3DD00"/><stop offset="0.117647" stop-color="#B4DC00"/><stop offset="0.132353" stop-color="#B5DC00"/><stop offset="0.147059" stop-color="#B5DC00"/><stop offset="0.161765" stop-color="#B6DB00"/><stop offset="0.176471" stop-color="#B7DB00"/><stop offset="0.191176" stop-color="#B7DA00"/><stop offset="0.205882" stop-color="#B8DA00"/><stop offset="0.220588" stop-color="#B9D900"/><stop offset="0.235294" stop-color="#B9D900"/><stop offset="0.25" stop-color="#BAD800"/><stop offset="0.264706" stop-color="#BBD800"/><stop offset="0.279412" stop-color="#BBD700"/><stop offset="0.294118" stop-color="#BCD700"/><stop offset="0.308824" stop-color="#BCD600"/><stop offset="0.323529" stop-color="#BDD500"/><stop offset="0.338235" stop-color="#BED400"/><stop offset="0.352941" stop-color="#BED400"/><stop offset="0.367647" stop-color="#BFD300"/><stop offset="0.382353" stop-color="#BFD200"/><stop offset="0.397059" stop-color="#C0D100"/><stop offset="0.411765" stop-color="#C0D000"/><stop offset="0.426471" stop-color="#C1D000"/><stop offset="0.441176" stop-color="#C1CF00"/><stop offset="0.455882" stop-color="#C2CE00"/><stop offset="0.470588" stop-color="#C2CD00"/><stop offset="0.485294" stop-color="#C3CC00"/><stop offset="0.5" stop-color="#C3CB00"/><stop offset="0.514706" stop-color="#C4CA00"/><stop offset="0.529412" stop-color="#C4C900"/><stop offset="0.544118" stop-color="#C5C700"/><stop offset="0.558824" stop-color="#C5C600"/><stop offset="0.573529" stop-color="#C5C500"/><stop offset="0.588235" stop-color="#C6C400"/><stop offset="0.602941" stop-color="#C6C300"/><stop offset="0.617647" stop-color="#C7C200"/><stop offset="0.632353" stop-color="#C7C000"/><stop offset="0.647059" stop-color="#C7BF00"/><stop offset="0.661765" stop-color="#C8BE00"/><stop offset="0.676471" stop-color="#C8BC00"/><stop offset="0.691176" stop-color="#C8BB00"/><stop offset="0.705882" stop-color="#C8BA00"/><stop offset="0.720588" stop-color="#C9B800"/><stop offset="0.735294" stop-color="#C9B700"/><stop offset="0.75" stop-color="#C9B500"/><stop offset="0.764706" stop-color="#CAB400"/><stop offset="0.779412" stop-color="#CAB200"/><stop offset="0.794118" stop-color="#CAB100"/><stop offset="0.808824" stop-color="#CAAF00"/><stop offset="0.823529" stop-color="#CAAE00"/><stop offset="0.838235" stop-color="#CBAC00"/><stop offset="0.852941" stop-color="#CBAA00"/><stop offset="0.867647" stop-color="#CBA900"/><stop offset="0.882353" stop-color="#CBA700"/><stop offset="0.897059" stop-color="#CBA500"/><stop offset="0.911765" stop-color="#CBA300"/><stop offset="0.926471" stop-color="#CBA200"/><stop offset="0.941176" stop-color="#CBA000"/><stop offset="0.955882" stop-color="#CB9E00"/><stop offset="0.970588" stop-color="#CB9C00"/><stop offset="0.985294" stop-color="#CB9A00"/><stop offset="1" stop-color="#CC9900"/></linearGradient></defs><g clip-path="url(#clip0)" transform="translate(-910 -610)"><path d="M910 672.252C910 637.871 937.871 610 972.252 610L1279.75 610C1314.13 610 1342 637.871 1342 672.252L1342 807.748C1342 842.129 1314.13 870 1279.75 870L972.252 870C937.871 870 910 842.129 910 807.748Z" fill="url(#fill1)" fill-rule="evenodd"/><path d="M1252.93 675C1265.09 675 1275.63 677.608 1284.57 682.824 1293.51 688.039 1300.16 694.832 1304.54 703.202L1281.56 719.213C1279.62 714.604 1277.03 711.025 1273.81 708.478 1270.59 705.931 1267.06 704.141 1263.23 703.111 1259.4 702.08 1255.72 701.564 1252.2 701.564 1246.48 701.564 1241.5 702.686 1237.24 704.93 1232.99 707.174 1229.46 710.176 1226.66 713.936 1223.87 717.697 1221.8 721.881 1220.46 726.491 1219.13 731.1 1218.46 735.709 1218.46 740.318 1218.46 745.412 1219.25 750.325 1220.83 755.056 1222.41 759.786 1224.69 763.971 1227.67 767.61 1230.65 771.249 1234.26 774.13 1238.52 776.252 1242.77 778.375 1247.46 779.436 1252.56 779.436 1256.21 779.436 1259.92 778.83 1263.69 777.617 1267.46 776.404 1270.95 774.493 1274.17 771.886 1277.4 769.278 1279.86 765.851 1281.56 761.606L1306 775.979C1303.45 782.287 1299.25 787.684 1293.42 792.173 1287.58 796.66 1280.98 800.087 1273.63 802.452 1266.27 804.818 1259.01 806 1251.83 806 1242.47 806 1233.87 804.09 1226.03 800.269 1218.18 796.448 1211.44 791.354 1205.78 784.986 1200.13 778.617 1195.75 771.461 1192.65 763.516 1189.55 755.571 1188 747.475 1188 739.226 1188 731.342 1189.46 723.61 1192.38 716.029 1195.3 708.448 1199.55 701.564 1205.14 695.378 1210.74 689.192 1217.55 684.249 1225.57 680.549 1233.6 676.85 1242.71 675 1252.93 675Z" fill="#FFFFFF" fill-rule="evenodd"/><path d="M958 676 1013.5 676C1019.73 676 1025.44 677.242 1030.63 679.725 1035.82 682.208 1040.31 685.539 1044.09 689.718 1047.88 693.897 1050.81 698.59 1052.89 703.799 1054.96 709.007 1056 714.337 1056 719.787 1056 727.176 1054.26 734.202 1050.78 740.864 1047.3 747.526 1042.48 752.946 1036.31 757.125 1030.14 761.304 1022.84 763.393 1014.42 763.393L988.041 763.393 988.041 805 958 805 958 676ZM988.041 702.164 988.041 737.411 1012.59 737.411C1014.91 737.411 1017.04 736.745 1019 735.413 1020.95 734.081 1022.54 732.082 1023.76 729.417 1024.98 726.752 1025.59 723.482 1025.59 719.606 1025.59 715.609 1024.89 712.308 1023.49 709.704 1022.08 707.1 1020.31 705.192 1018.17 703.98 1016.04 702.769 1013.81 702.164 1011.49 702.164L988.041 702.164Z" fill="#FFFFFF" fill-rule="evenodd"/><path d="M1104.51 676 1136.67 676 1181 805 1150.48 805 1141.73 776.111 1099.27 776.111 1090.52 805 1060 805 1104.51 676ZM1120.5 705.979 1105.48 755.581 1135.52 755.581 1120.5 705.979Z" fill="#FFFFFF" fill-rule="evenodd"/></g></svg>