<svg width="432" height="260" xmlns="http://www.w3.org/2000/svg" xmlns:xlink="http://www.w3.org/1999/xlink" overflow="hidden"><defs><clipPath id="clip0"><rect x="910" y="610" width="432" height="260"/></clipPath><linearGradient x1="953" y1="567" x2="1299" y2="913" gradientUnits="userSpaceOnUse" spreadMethod="reflect" id="fill1"><stop offset="0" stop-color="#AEDE00"/><stop offset="0.0147059" stop-color="#AEDD00"/><stop offset="0.0294118" stop-color="#AFDD00"/><stop offset="0.0441176" stop-color="#B0DD00"/><stop offset="0.0588235" stop-color="#B1DD00"/><stop offset="0.0735294" stop-color="#B2DD00"/><stop offset="0.0882353" stop-color="#B2DD00"/><stop offset="0.102941" stop-color="#B3DD00"/><stop offset="0.117647" stop-color="#B4DC00"/><stop offset="0.132353" stop-color="#B5DC00"/><stop offset="0.147059" stop-color="#B5DC00"/><stop offset="0.161765" stop-color="#B6DB00"/><stop offset="0.176471" stop-color="#B7DB00"/><stop offset="0.191176" stop-color="#B7DA00"/><stop offset="0.205882" stop-color="#B8DA00"/><stop offset="0.220588" stop-color="#B9D900"/><stop offset="0.235294" stop-color="#B9D900"/><stop offset="0.25" stop-color="#BAD800"/><stop offset="0.264706" stop-color="#BBD800"/><stop offset="0.279412" stop-color="#BBD700"/><stop offset="0.294118" stop-color="#BCD700"/><stop offset="0.308824" stop-color="#BCD600"/><stop offset="0.323529" stop-color="#BDD500"/><stop offset="0.338235" stop-color="#BED400"/><stop offset="0.352941" stop-color="#BED400"/><stop offset="0.367647" stop-color="#BFD300"/><stop offset="0.382353" stop-color="#BFD200"/><stop offset="0.397059" stop-color="#C0D100"/><stop offset="0.411765" stop-color="#C0D000"/><stop offset="0.426471" stop-color="#C1D000"/><stop offset="0.441176" stop-color="#C1CF00"/><stop offset="0.455882" stop-color="#C2CE00"/><stop offset="0.470588" stop-color="#C2CD00"/><stop offset="0.485294" stop-color="#C3CC00"/><stop offset="0.5" stop-color="#C3CB00"/><stop offset="0.514706" stop-color="#C4CA00"/><stop offset="0.529412" stop-color="#C4C900"/><stop offset="0.544118" stop-color="#C5C700"/><stop offset="0.558824" stop-color="#C5C600"/><stop offset="0.573529" stop-color="#C5C500"/><stop offset="0.588235" stop-color="#C6C400"/><stop offset="0.602941" stop-color="#C6C300"/><stop offset="0.617647" stop-color="#C7C200"/><stop offset="0.632353" stop-color="#C7C000"/><stop offset="0.647059" stop-color="#C7BF00"/><stop offset="0.661765" stop-color="#C8BE00"/><stop offset="0.676471" stop-color="#C8BC00"/><stop offset="0.691176" stop-color="#C8BB00"/><stop offset="0.705882" stop-color="#C8BA00"/><stop offset="0.720588" stop-color="#C9B800"/><stop offset="0.735294" stop-color="#C9B700"/><stop offset="0.75" stop-color="#C9B500"/><stop offset="0.764706" stop-color="#CAB400"/><stop offset="0.779412" stop-color="#CAB200"/><stop offset="0.794118" stop-color="#CAB100"/><stop offset="0.808824" stop-color="#CAAF00"/><stop offset="0.823529" stop-color="#CAAE00"/><stop offset="0.838235" stop-color="#CBAC00"/><stop offset="0.852941" stop-color="#CBAA00"/><stop offset="0.867647" stop-color="#CBA900"/><stop offset="0.882353" stop-color="#CBA700"/><stop offset="0.897059" stop-color="#CBA500"/><stop offset="0.911765" stop-color="#CBA300"/><stop offset="0.926471" stop-color="#CBA200"/><stop offset="0.941176" stop-color="#CBA000"/><stop offset="0.955882" stop-color="#CB9E00"/><stop offset="0.970588" stop-color="#CB9C00"/><stop offset="0.985294" stop-color="#CB9A00"/><stop offset="1" stop-color="#CC9900"/></linearGradient></defs><g clip-path="url(#clip0)" transform="translate(-910 -610)"><path d="M910 672.252C910 637.871 937.871 610 972.252 610L1279.75 610C1314.13 610 1342 637.871 1342 672.252L1342 807.748C1342 842.129 1314.13 870 1279.75 870L972.252 870C937.871 870 910 842.129 910 807.748Z" fill="url(#fill1)" fill-rule="evenodd"/><path d="M1236.87 681C1247.9 681 1257.46 683.369 1265.57 688.107 1273.67 692.845 1279.71 699.015 1283.68 706.618L1262.84 721.162C1261.08 716.975 1258.73 713.725 1255.81 711.411 1252.89 709.097 1249.69 707.472 1246.22 706.535 1242.75 705.599 1239.41 705.13 1236.21 705.13 1231.03 705.13 1226.51 706.149 1222.65 708.188 1218.79 710.226 1215.6 712.954 1213.06 716.369 1210.52 719.785 1208.65 723.586 1207.44 727.773 1206.22 731.961 1205.62 736.147 1205.62 740.334 1205.62 744.962 1206.34 749.425 1207.77 753.722 1209.2 758.019 1211.27 761.82 1213.97 765.126 1216.67 768.432 1219.95 771.048 1223.81 772.977 1227.67 774.905 1231.91 775.869 1236.54 775.869 1239.85 775.869 1243.21 775.318 1246.63 774.216 1250.05 773.114 1253.22 771.379 1256.14 769.01 1259.06 766.641 1261.3 763.529 1262.84 759.672L1285 772.729C1282.68 778.458 1278.88 783.362 1273.59 787.438 1268.3 791.516 1262.32 794.628 1255.65 796.777 1248.98 798.925 1242.39 800 1235.88 800 1227.39 800 1219.59 798.264 1212.48 794.794 1205.37 791.323 1199.25 786.695 1194.12 780.91 1189 775.125 1185.03 768.625 1182.22 761.407 1179.41 754.19 1178 746.836 1178 739.343 1178 732.181 1179.32 725.156 1181.97 718.27 1184.62 711.383 1188.47 705.13 1193.55 699.511 1198.62 693.891 1204.79 689.402 1212.07 686.041 1219.34 682.68 1227.61 681 1236.87 681Z" fill="#FFFFFF" fill-rule="evenodd"/><path d="M972 682 1021.84 682C1027.43 682 1032.56 683.126 1037.22 685.378 1041.88 687.63 1045.91 690.651 1049.31 694.441 1052.71 698.232 1055.34 702.489 1057.2 707.212 1059.07 711.937 1060 716.77 1060 721.714 1060 728.415 1058.44 734.787 1055.31 740.829 1052.19 746.872 1047.86 751.788 1042.32 755.578 1036.78 759.368 1030.23 761.263 1022.66 761.263L998.976 761.263 998.976 799 972 799 972 682ZM998.976 705.729 998.976 737.698 1021.02 737.698C1023.1 737.698 1025.02 737.094 1026.77 735.886 1028.53 734.677 1029.95 732.865 1031.05 730.448 1032.15 728.031 1032.7 725.065 1032.7 721.549 1032.7 717.924 1032.06 714.93 1030.8 712.568 1029.54 710.206 1027.95 708.476 1026.03 707.377 1024.11 706.279 1022.11 705.729 1020.03 705.729L998.976 705.729Z" fill="#FFFFFF" fill-rule="evenodd"/><path d="M1104.47 682 1133.7 682 1174 799 1146.25 799 1138.3 772.798 1099.7 772.798 1091.75 799 1064 799 1104.47 682ZM1119 709.19 1105.35 754.177 1132.65 754.177 1119 709.19Z" fill="#FFFFFF" fill-rule="evenodd"/></g></svg>