<svg width="432" height="260" xmlns="http://www.w3.org/2000/svg" xmlns:xlink="http://www.w3.org/1999/xlink" overflow="hidden"><defs><clipPath id="clip0"><rect x="2818" y="1020" width="432" height="260"/></clipPath><linearGradient x1="2861" y1="977" x2="3207" y2="1323" gradientUnits="userSpaceOnUse" spreadMethod="reflect" id="fill1"><stop offset="0" stop-color="#A6A6A6"/><stop offset="0.0113636" stop-color="#A5A5A5"/><stop offset="0.0227273" stop-color="#A5A5A5"/><stop offset="0.0340909" stop-color="#A5A5A5"/><stop offset="0.0454545" stop-color="#A5A5A5"/><stop offset="0.0568182" stop-color="#A5A5A5"/><stop offset="0.0681818" stop-color="#A5A5A5"/><stop offset="0.0795455" stop-color="#A5A5A5"/><stop offset="0.0909091" stop-color="#A5A5A5"/><stop offset="0.102273" stop-color="#A5A4A5"/><stop offset="0.113636" stop-color="#A5A4A5"/><stop offset="0.125" stop-color="#A4A4A5"/><stop offset="0.136364" stop-color="#A4A3A5"/><stop offset="0.147727" stop-color="#A4A3A5"/><stop offset="0.159091" stop-color="#A4A3A4"/><stop offset="0.170455" stop-color="#A3A2A4"/><stop offset="0.181818" stop-color="#A3A2A4"/><stop offset="0.193182" stop-color="#A3A1A4"/><stop offset="0.204545" stop-color="#A3A1A4"/><stop offset="0.215909" stop-color="#A2A0A4"/><stop offset="0.227273" stop-color="#A2A0A3"/><stop offset="0.238636" stop-color="#A29FA3"/><stop offset="0.25" stop-color="#A19FA3"/><stop offset="0.261364" stop-color="#A19EA3"/><stop offset="0.272727" stop-color="#A09EA2"/><stop offset="0.284091" stop-color="#A09DA2"/><stop offset="0.295455" stop-color="#A09CA2"/><stop offset="0.306818" stop-color="#9F9CA2"/><stop offset="0.318182" stop-color="#9F9BA1"/><stop offset="0.329545" stop-color="#9E9AA1"/><stop offset="0.340909" stop-color="#9E9AA1"/><stop offset="0.352273" stop-color="#9D99A1"/><stop offset="0.363636" stop-color="#9D98A0"/><stop offset="0.375" stop-color="#9C97A0"/><stop offset="0.386364" stop-color="#9C97A0"/><stop offset="0.397727" stop-color="#9B969F"/><stop offset="0.409091" stop-color="#9B959F"/><stop offset="0.420455" stop-color="#9A949F"/><stop offset="0.431818" stop-color="#99939E"/><stop offset="0.443182" stop-color="#99929E"/><stop offset="0.454545" stop-color="#98919E"/><stop offset="0.465909" stop-color="#98909D"/><stop offset="0.477273" stop-color="#978F9D"/><stop offset="0.488636" stop-color="#968E9C"/><stop offset="0.5" stop-color="#968D9C"/><stop offset="0.511364" stop-color="#958C9C"/><stop offset="0.522727" stop-color="#948B9B"/><stop offset="0.534091" stop-color="#948A9B"/><stop offset="0.545455" stop-color="#93899A"/><stop offset="0.556818" stop-color="#92889A"/><stop offset="0.568182" stop-color="#918799"/><stop offset="0.579545" stop-color="#918599"/><stop offset="0.590909" stop-color="#908498"/><stop offset="0.602273" stop-color="#8F8398"/><stop offset="0.613636" stop-color="#8E8297"/><stop offset="0.625" stop-color="#8D8197"/><stop offset="0.636364" stop-color="#8D7F97"/><stop offset="0.647727" stop-color="#8C7E96"/><stop offset="0.659091" stop-color="#8B7D95"/><stop offset="0.670455" stop-color="#8A7B95"/><stop offset="0.681818" stop-color="#897A94"/><stop offset="0.693182" stop-color="#887994"/><stop offset="0.704545" stop-color="#877793"/><stop offset="0.715909" stop-color="#877693"/><stop offset="0.727273" stop-color="#867592"/><stop offset="0.738636" stop-color="#857392"/><stop offset="0.75" stop-color="#847291"/><stop offset="0.761364" stop-color="#837091"/><stop offset="0.772727" stop-color="#826F90"/><stop offset="0.784091" stop-color="#816D8F"/><stop offset="0.795455" stop-color="#806C8F"/><stop offset="0.806818" stop-color="#7F6A8E"/><stop offset="0.818182" stop-color="#7E688D"/><stop offset="0.829545" stop-color="#7D678D"/><stop offset="0.840909" stop-color="#7C658C"/><stop offset="0.852273" stop-color="#7B648C"/><stop offset="0.863636" stop-color="#79628B"/><stop offset="0.875" stop-color="#78608A"/><stop offset="0.886364" stop-color="#775F8A"/><stop offset="0.897727" stop-color="#765D89"/><stop offset="0.909091" stop-color="#755B88"/><stop offset="0.920455" stop-color="#745988"/><stop offset="0.931818" stop-color="#735887"/><stop offset="0.943182" stop-color="#725686"/><stop offset="0.954545" stop-color="#705485"/><stop offset="0.965909" stop-color="#6F5285"/><stop offset="0.977273" stop-color="#6E5084"/><stop offset="0.988636" stop-color="#6D4E83"/><stop offset="1" stop-color="#6C4D83"/></linearGradient></defs><g clip-path="url(#clip0)" transform="translate(-2818 -1020)"><path d="M2818 1082.25C2818 1047.87 2845.87 1020 2880.25 1020L3187.75 1020C3222.13 1020 3250 1047.87 3250 1082.25L3250 1217.75C3250 1252.13 3222.13 1280 3187.75 1280L2880.25 1280C2845.87 1280 2818 1252.13 2818 1217.75Z" fill="url(#fill1)" fill-rule="evenodd"/><path d="M2943 1092 2993.41 1092C2999.06 1092 3004.25 1093.13 3008.96 1095.38 3013.67 1097.63 3017.75 1100.65 3021.19 1104.44 3024.62 1108.23 3027.29 1112.49 3029.17 1117.21 3031.06 1121.94 3032 1126.77 3032 1131.71 3032 1138.42 3030.42 1144.79 3027.26 1150.83 3024.1 1156.87 3019.72 1161.79 3014.12 1165.58 3008.52 1169.37 3001.89 1171.26 2994.24 1171.26L2970.28 1171.26 2970.28 1209 2943 1209 2943 1092ZM2970.28 1115.73 2970.28 1147.7 2992.57 1147.7C2994.68 1147.7 2996.62 1147.09 2998.4 1145.89 3000.17 1144.68 3001.61 1142.86 3002.72 1140.45 3003.83 1138.03 3004.39 1135.06 3004.39 1131.55 3004.39 1127.92 3003.75 1124.93 3002.47 1122.57 3001.2 1120.21 2999.59 1118.48 2997.65 1117.38 2995.71 1116.28 2993.68 1115.73 2991.58 1115.73L2970.28 1115.73Z" fill="#FFFFFF" fill-rule="evenodd"/><path d="M3047 1092 3127.52 1092 3127.52 1115.73 3073.95 1115.73 3073.95 1138.47 3119.96 1138.47 3119.96 1160.39 3073.95 1160.39 3073.95 1185.27 3129 1185.27 3129 1209 3047 1209 3047 1092Z" fill="#FFFFFF" fill-rule="evenodd"/></g></svg>