<svg width="433" height="260" xmlns="http://www.w3.org/2000/svg" xmlns:xlink="http://www.w3.org/1999/xlink" overflow="hidden"><defs><clipPath id="clip0"><rect x="1548" y="1733" width="433" height="260"/></clipPath><linearGradient x1="1591.25" y1="1689.75" x2="1937.75" y2="2036.25" gradientUnits="userSpaceOnUse" spreadMethod="reflect" id="fill1"><stop offset="0" stop-color="#FFD966"/><stop offset="0.8" stop-color="#BF9000"/><stop offset="1" stop-color="#BF9000"/></linearGradient></defs><g clip-path="url(#clip0)" transform="translate(-1548 -1733)"><path d="M1548 1795.25C1548 1760.87 1575.87 1733 1610.25 1733L1918.75 1733C1953.13 1733 1981 1760.87 1981 1795.25L1981 1930.75C1981 1965.13 1953.13 1993 1918.75 1993L1610.25 1993C1575.87 1993 1548 1965.13 1548 1930.75Z" fill="url(#fill1)" fill-rule="evenodd"/><path d="M1682 1805 1732.41 1805C1738.06 1805 1743.25 1806.13 1747.96 1808.38 1752.67 1810.63 1756.75 1813.65 1760.19 1817.44 1763.62 1821.23 1766.29 1825.49 1768.17 1830.21 1770.06 1834.94 1771 1839.77 1771 1844.71 1771 1851.42 1769.42 1857.79 1766.26 1863.83 1763.1 1869.87 1758.72 1874.79 1753.12 1878.58 1747.52 1882.37 1740.89 1884.26 1733.24 1884.26L1709.28 1884.26 1709.28 1922 1682 1922 1682 1805ZM1709.28 1828.73 1709.28 1860.7 1731.57 1860.7C1733.68 1860.7 1735.62 1860.09 1737.4 1858.89 1739.17 1857.68 1740.61 1855.86 1741.72 1853.45 1742.83 1851.03 1743.39 1848.06 1743.39 1844.55 1743.39 1840.92 1742.75 1837.93 1741.47 1835.57 1740.2 1833.21 1738.59 1831.48 1736.65 1830.38 1734.71 1829.28 1732.68 1828.73 1730.58 1828.73L1709.28 1828.73Z" fill="#FFFFFF" fill-rule="evenodd"/><path d="M1818.92 1805 1846 1805 1846 1864.08C1846 1872.81 1845.5 1880.77 1844.51 1887.98 1843.52 1895.18 1841.51 1901.42 1838.49 1906.72 1835.46 1912.01 1830.92 1916.04 1824.86 1918.83 1818.81 1921.61 1810.72 1923 1800.59 1923 1795.42 1923 1790.74 1922.39 1786.56 1921.18 1782.38 1919.97 1778.52 1918.16 1775 1915.74L1780.94 1893.62C1782.05 1894.39 1784.38 1895.47 1787.96 1896.84 1791.54 1898.22 1795.75 1898.9 1800.59 1898.9 1804.45 1898.9 1807.61 1898.25 1810.09 1896.94 1812.56 1895.64 1814.44 1893.65 1815.7 1890.98 1816.97 1888.32 1817.82 1884.83 1818.26 1880.53 1818.7 1876.23 1818.92 1871.03 1818.92 1864.94L1818.92 1805Z" fill="#FFFFFF" fill-rule="evenodd"/></g></svg>