<svg width="433" height="260" xmlns="http://www.w3.org/2000/svg" xmlns:xlink="http://www.w3.org/1999/xlink" overflow="hidden"><defs><clipPath id="clip0"><rect x="1548" y="1733" width="433" height="260"/></clipPath><linearGradient x1="1591.25" y1="1689.75" x2="1937.75" y2="2036.25" gradientUnits="userSpaceOnUse" spreadMethod="reflect" id="fill1"><stop offset="0" stop-color="#FFD966"/><stop offset="0.00990099" stop-color="#FED865"/><stop offset="0.019802" stop-color="#FED865"/><stop offset="0.029703" stop-color="#FED865"/><stop offset="0.039604" stop-color="#FED865"/><stop offset="0.049505" stop-color="#FED865"/><stop offset="0.0594059" stop-color="#FED865"/><stop offset="0.0693069" stop-color="#FED865"/><stop offset="0.0792079" stop-color="#FED865"/><stop offset="0.0891089" stop-color="#FED864"/><stop offset="0.0990099" stop-color="#FED864"/><stop offset="0.108911" stop-color="#FDD764"/><stop offset="0.118812" stop-color="#FDD764"/><stop offset="0.128713" stop-color="#FDD763"/><stop offset="0.138614" stop-color="#FDD763"/><stop offset="0.148515" stop-color="#FDD663"/><stop offset="0.158416" stop-color="#FCD662"/><stop offset="0.168317" stop-color="#FCD662"/><stop offset="0.178218" stop-color="#FCD661"/><stop offset="0.188119" stop-color="#FCD561"/><stop offset="0.19802" stop-color="#FBD561"/><stop offset="0.207921" stop-color="#FBD560"/><stop offset="0.217822" stop-color="#FBD460"/><stop offset="0.227723" stop-color="#FBD45F"/><stop offset="0.237624" stop-color="#FAD45F"/><stop offset="0.247525" stop-color="#FAD35E"/><stop offset="0.257426" stop-color="#F9D35D"/><stop offset="0.267327" stop-color="#F9D25D"/><stop offset="0.277228" stop-color="#F9D25C"/><stop offset="0.287129" stop-color="#F8D15C"/><stop offset="0.29703" stop-color="#F8D15B"/><stop offset="0.306931" stop-color="#F8D15A"/><stop offset="0.316832" stop-color="#F7D05A"/><stop offset="0.326733" stop-color="#F7D059"/><stop offset="0.336634" stop-color="#F6CF58"/><stop offset="0.346535" stop-color="#F6CE58"/><stop offset="0.356436" stop-color="#F5CE57"/><stop offset="0.366337" stop-color="#F5CD56"/><stop offset="0.376238" stop-color="#F4CD55"/><stop offset="0.386139" stop-color="#F4CC54"/><stop offset="0.39604" stop-color="#F3CC54"/><stop offset="0.405941" stop-color="#F3CB53"/><stop offset="0.415842" stop-color="#F2CA52"/><stop offset="0.425743" stop-color="#F2CA51"/><stop offset="0.435644" stop-color="#F1C950"/><stop offset="0.445545" stop-color="#F0C84F"/><stop offset="0.455446" stop-color="#F0C84E"/><stop offset="0.465347" stop-color="#EFC74D"/><stop offset="0.475248" stop-color="#EFC64C"/><stop offset="0.485149" stop-color="#EEC64B"/><stop offset="0.49505" stop-color="#EDC54A"/><stop offset="0.504951" stop-color="#EDC449"/><stop offset="0.514852" stop-color="#ECC348"/><stop offset="0.524752" stop-color="#EBC347"/><stop offset="0.534653" stop-color="#EBC246"/><stop offset="0.544554" stop-color="#EAC145"/><stop offset="0.554455" stop-color="#E9C044"/><stop offset="0.564356" stop-color="#E9C043"/><stop offset="0.574257" stop-color="#E8BF41"/><stop offset="0.584158" stop-color="#E7BE40"/><stop offset="0.594059" stop-color="#E6BD3F"/><stop offset="0.60396" stop-color="#E6BC3E"/><stop offset="0.613861" stop-color="#E5BB3D"/><stop offset="0.623762" stop-color="#E4BA3B"/><stop offset="0.633663" stop-color="#E3B93A"/><stop offset="0.643564" stop-color="#E2B939"/><stop offset="0.653465" stop-color="#E2B838"/><stop offset="0.663366" stop-color="#E1B736"/><stop offset="0.673267" stop-color="#E0B635"/><stop offset="0.683168" stop-color="#DFB534"/><stop offset="0.693069" stop-color="#DEB432"/><stop offset="0.70297" stop-color="#DDB331"/><stop offset="0.712871" stop-color="#DDB22F"/><stop offset="0.722772" stop-color="#DCB12E"/><stop offset="0.732673" stop-color="#DBB02D"/><stop offset="0.742574" stop-color="#DAAF2B"/><stop offset="0.752475" stop-color="#D9AE2A"/><stop offset="0.762376" stop-color="#D8AD28"/><stop offset="0.772277" stop-color="#D7AC27"/><stop offset="0.782178" stop-color="#D6AA25"/><stop offset="0.792079" stop-color="#D5A924"/><stop offset="0.80198" stop-color="#D4A822"/><stop offset="0.811881" stop-color="#D3A720"/><stop offset="0.821782" stop-color="#D2A61F"/><stop offset="0.831683" stop-color="#D1A51D"/><stop offset="0.841584" stop-color="#D0A41C"/><stop offset="0.851485" stop-color="#CFA21A"/><stop offset="0.861386" stop-color="#CEA118"/><stop offset="0.871287" stop-color="#CDA017"/><stop offset="0.881188" stop-color="#CC9F15"/><stop offset="0.891089" stop-color="#CB9E13"/><stop offset="0.90099" stop-color="#CA9C12"/><stop offset="0.910891" stop-color="#C99B10"/><stop offset="0.920792" stop-color="#C89A0E"/><stop offset="0.930693" stop-color="#C7990C"/><stop offset="0.940594" stop-color="#C5970B"/><stop offset="0.950495" stop-color="#C49609"/><stop offset="0.960396" stop-color="#C39507"/><stop offset="0.970297" stop-color="#C29405"/><stop offset="0.980198" stop-color="#C19203"/><stop offset="0.990099" stop-color="#C09101"/><stop offset="1" stop-color="#BF9000"/></linearGradient></defs><g clip-path="url(#clip0)" transform="translate(-1548 -1733)"><path d="M1548 1795.25C1548 1760.87 1575.87 1733 1610.25 1733L1918.75 1733C1953.13 1733 1981 1760.87 1981 1795.25L1981 1930.75C1981 1965.13 1953.13 1993 1918.75 1993L1610.25 1993C1575.87 1993 1548 1965.13 1548 1930.75Z" fill="url(#fill1)" fill-rule="evenodd"/><path d="M1713.27 1833.06 1713.27 1858.14 1730.32 1858.14C1731.65 1858.14 1732.92 1857.76 1734.13 1856.99 1735.34 1856.22 1736.36 1854.9 1737.19 1853.03 1738.02 1851.15 1738.43 1848.68 1738.43 1845.6 1738.43 1842.3 1737.96 1839.74 1737.03 1837.92 1736.09 1836.11 1734.93 1834.84 1733.55 1834.13 1732.17 1833.41 1730.82 1833.06 1729.49 1833.06ZM1815.73 1805 1848 1805 1848 1864.08C1848 1872.92 1847.48 1880.94 1846.43 1888.14 1845.38 1895.34 1843.26 1901.56 1840.06 1906.8 1836.86 1912.03 1832.06 1916.04 1825.66 1918.83 1819.26 1921.61 1810.71 1923 1800 1923 1794.93 1923 1790.29 1922.39 1786.1 1921.18 1781.91 1919.97 1778.04 1918.16 1774.51 1915.74L1781.3 1889.5C1781.96 1889.94 1784.06 1890.87 1787.59 1892.3 1791.12 1893.73 1795.26 1894.45 1800 1894.45 1803.42 1894.45 1806.18 1893.88 1808.28 1892.74 1810.37 1891.59 1811.95 1889.82 1812.99 1887.43 1814.04 1885.04 1814.76 1881.91 1815.15 1878.04 1815.53 1874.18 1815.73 1869.47 1815.73 1863.93ZM1681 1805 1731.65 1805C1737.38 1805 1742.68 1806.16 1747.54 1808.47 1752.39 1810.78 1756.58 1813.88 1760.11 1817.79 1763.65 1821.7 1766.38 1826.07 1768.31 1830.91 1770.24 1835.75 1771.2 1840.65 1771.2 1845.6 1771.2 1852.53 1769.58 1859.08 1766.32 1865.24 1763.07 1871.4 1758.54 1876.43 1752.75 1880.34 1746.96 1884.24 1740.2 1886.2 1732.47 1886.2L1713.27 1886.2 1713.27 1922.17 1681 1922.17Z" fill="#FFFFFF" fill-rule="evenodd"/></g></svg>