<svg width="432" height="260" xmlns="http://www.w3.org/2000/svg" xmlns:xlink="http://www.w3.org/1999/xlink" overflow="hidden"><defs><clipPath id="clip0"><rect x="2180" y="610" width="432" height="260"/></clipPath><linearGradient x1="2223" y1="567" x2="2569" y2="913" gradientUnits="userSpaceOnUse" spreadMethod="reflect" id="fill1"><stop offset="0" stop-color="#FFC000"/><stop offset="0.75" stop-color="#FF0000"/><stop offset="1" stop-color="#FF0000"/></linearGradient></defs><g clip-path="url(#clip0)" transform="translate(-2180 -610)"><path d="M2180 672.252C2180 637.871 2207.87 610 2242.25 610L2549.75 610C2584.13 610 2612 637.871 2612 672.252L2612 807.749C2612 842.129 2584.13 870 2549.75 870L2242.25 870C2207.87 870 2180 842.129 2180 807.749Z" fill="url(#fill1)" fill-rule="evenodd"/><path d="M2247 682 2346 682 2346 705.729 2310.18 705.729 2310.18 799 2282.99 799 2282.99 705.729 2247 705.729 2247 682Z" fill="#FFFFFF" fill-rule="evenodd"/><path d="M2360 682 2387.12 682 2387.12 775.27 2444 775.27 2444 799 2360 799 2360 682Z" fill="#FFFFFF" fill-rule="evenodd"/><path d="M2456 682 2536.52 682 2536.52 705.729 2482.95 705.729 2482.95 728.47 2528.96 728.47 2528.96 750.387 2482.95 750.387 2482.95 775.27 2538 775.27 2538 799 2456 799 2456 682Z" fill="#FFFFFF" fill-rule="evenodd"/></g></svg>