<svg width="432" height="260" xmlns="http://www.w3.org/2000/svg" xmlns:xlink="http://www.w3.org/1999/xlink" overflow="hidden"><defs><clipPath id="clip0"><rect x="2180" y="610" width="432" height="260"/></clipPath><linearGradient x1="2223" y1="567" x2="2569" y2="913" gradientUnits="userSpaceOnUse" spreadMethod="reflect" id="fill1"><stop offset="0" stop-color="#FFC000"/><stop offset="0.75" stop-color="#FF0000"/><stop offset="1" stop-color="#FF0000"/></linearGradient></defs><g clip-path="url(#clip0)" transform="translate(-2180 -610)"><path d="M2180 672.252C2180 637.871 2207.87 610 2242.25 610L2549.75 610C2584.13 610 2612 637.871 2612 672.252L2612 807.748C2612 842.129 2584.13 870 2549.75 870L2242.25 870C2207.87 870 2180 842.129 2180 807.748Z" fill="url(#fill1)" fill-rule="evenodd"/><path d="M2231 676 2340 676 2340 702.164 2300.56 702.164 2300.56 805 2270.62 805 2270.62 702.164 2231 702.164 2231 676Z" fill="#FFFFFF" fill-rule="evenodd"/><path d="M2355 676 2384.7 676 2384.7 778.837 2447 778.837 2447 805 2355 805 2355 676Z" fill="#FFFFFF" fill-rule="evenodd"/><path d="M2461 676 2550.36 676 2550.36 702.164 2490.91 702.164 2490.91 727.237 2541.97 727.237 2541.97 751.402 2490.91 751.402 2490.91 778.837 2552 778.837 2552 805 2461 805 2461 676Z" fill="#FFFFFF" fill-rule="evenodd"/></g></svg>