<svg width="433" height="260" xmlns="http://www.w3.org/2000/svg" xmlns:xlink="http://www.w3.org/1999/xlink" overflow="hidden"><defs><clipPath id="clip0"><rect x="277" y="1020" width="433" height="260"/></clipPath><linearGradient x1="320.25" y1="976.75" x2="666.75" y2="1323.25" gradientUnits="userSpaceOnUse" spreadMethod="reflect" id="fill1"><stop offset="0" stop-color="#FF0000"/><stop offset="0.016129" stop-color="#FE0000"/><stop offset="0.0322581" stop-color="#FE0000"/><stop offset="0.0483871" stop-color="#FE0000"/><stop offset="0.0645161" stop-color="#FE0000"/><stop offset="0.0806452" stop-color="#FE0000"/><stop offset="0.0967742" stop-color="#FE0000"/><stop offset="0.112903" stop-color="#FD0000"/><stop offset="0.129032" stop-color="#FD0000"/><stop offset="0.145161" stop-color="#FD0000"/><stop offset="0.16129" stop-color="#FC0000"/><stop offset="0.177419" stop-color="#FC0000"/><stop offset="0.193548" stop-color="#FC0000"/><stop offset="0.209677" stop-color="#FB0000"/><stop offset="0.225806" stop-color="#FB0000"/><stop offset="0.241935" stop-color="#FA0000"/><stop offset="0.258065" stop-color="#FA0000"/><stop offset="0.274194" stop-color="#F90000"/><stop offset="0.290323" stop-color="#F80000"/><stop offset="0.306452" stop-color="#F80000"/><stop offset="0.322581" stop-color="#F70000"/><stop offset="0.33871" stop-color="#F60000"/><stop offset="0.354839" stop-color="#F50000"/><stop offset="0.370968" stop-color="#F50000"/><stop offset="0.387097" stop-color="#F40000"/><stop offset="0.403226" stop-color="#F30000"/><stop offset="0.419355" stop-color="#F20000"/><stop offset="0.435484" stop-color="#F10000"/><stop offset="0.451613" stop-color="#F00000"/><stop offset="0.467742" stop-color="#EF0000"/><stop offset="0.483871" stop-color="#EE0000"/><stop offset="0.5" stop-color="#ED0000"/><stop offset="0.516129" stop-color="#EC0000"/><stop offset="0.532258" stop-color="#EB0000"/><stop offset="0.548387" stop-color="#EA0000"/><stop offset="0.564516" stop-color="#E90000"/><stop offset="0.580645" stop-color="#E80000"/><stop offset="0.596774" stop-color="#E70000"/><stop offset="0.612903" stop-color="#E50000"/><stop offset="0.629032" stop-color="#E40000"/><stop offset="0.645161" stop-color="#E30000"/><stop offset="0.66129" stop-color="#E10000"/><stop offset="0.677419" stop-color="#E00000"/><stop offset="0.693548" stop-color="#DF0000"/><stop offset="0.709677" stop-color="#DD0000"/><stop offset="0.725806" stop-color="#DC0000"/><stop offset="0.741935" stop-color="#DB0000"/><stop offset="0.758065" stop-color="#D90000"/><stop offset="0.774194" stop-color="#D80000"/><stop offset="0.790323" stop-color="#D60000"/><stop offset="0.806452" stop-color="#D40000"/><stop offset="0.822581" stop-color="#D30000"/><stop offset="0.83871" stop-color="#D10000"/><stop offset="0.854839" stop-color="#D00000"/><stop offset="0.870968" stop-color="#CE0000"/><stop offset="0.887097" stop-color="#CC0000"/><stop offset="0.903226" stop-color="#CA0000"/><stop offset="0.919355" stop-color="#C90000"/><stop offset="0.935484" stop-color="#C70000"/><stop offset="0.951613" stop-color="#C50000"/><stop offset="0.967742" stop-color="#C30000"/><stop offset="0.983871" stop-color="#C10000"/><stop offset="1" stop-color="#C00000"/></linearGradient></defs><g clip-path="url(#clip0)" transform="translate(-277 -1020)"><path d="M277 1082.25C277 1047.87 304.871 1020 339.252 1020L647.748 1020C682.129 1020 710 1047.87 710 1082.25L710 1217.75C710 1252.13 682.129 1280 647.748 1280L339.252 1280C304.871 1280 277 1252.13 277 1217.75Z" fill="url(#fill1)" fill-rule="evenodd"/><path d="M332 1086 364.53 1086 397.244 1180.48 410.036 1146.14 388.289 1086.18 415.885 1086.18 429.408 1127.43 442.932 1086.18 470.711 1086.18 448.598 1146.14 461.756 1180.48 494.287 1086 527 1086 476.377 1215 450.425 1215 429.408 1164.49 408.574 1215 382.44 1215 332 1086Z" fill="#FFFFFF" fill-rule="evenodd"/><path d="M570.88 1086 603.303 1086 648 1215 617.225 1215 608.409 1186.11 565.593 1186.11 556.775 1215 526 1215 570.88 1086ZM587 1115.98 571.859 1165.58 602.144 1165.58 587 1115.98Z" fill="#FFFFFF" fill-rule="evenodd"/></g></svg>