<svg width="433" height="260" xmlns="http://www.w3.org/2000/svg" xmlns:xlink="http://www.w3.org/1999/xlink" overflow="hidden"><defs><clipPath id="clip0"><rect x="277" y="1020" width="433" height="260"/></clipPath><linearGradient x1="320.25" y1="976.75" x2="666.75" y2="1323.25" gradientUnits="userSpaceOnUse" spreadMethod="reflect" id="fill1"><stop offset="0" stop-color="#FF0000"/><stop offset="0.016129" stop-color="#FE0000"/><stop offset="0.0322581" stop-color="#FE0000"/><stop offset="0.0483871" stop-color="#FE0000"/><stop offset="0.0645161" stop-color="#FE0000"/><stop offset="0.0806452" stop-color="#FE0000"/><stop offset="0.0967742" stop-color="#FE0000"/><stop offset="0.112903" stop-color="#FD0000"/><stop offset="0.129032" stop-color="#FD0000"/><stop offset="0.145161" stop-color="#FD0000"/><stop offset="0.16129" stop-color="#FC0000"/><stop offset="0.177419" stop-color="#FC0000"/><stop offset="0.193548" stop-color="#FC0000"/><stop offset="0.209677" stop-color="#FB0000"/><stop offset="0.225806" stop-color="#FB0000"/><stop offset="0.241935" stop-color="#FA0000"/><stop offset="0.258065" stop-color="#FA0000"/><stop offset="0.274194" stop-color="#F90000"/><stop offset="0.290323" stop-color="#F80000"/><stop offset="0.306452" stop-color="#F80000"/><stop offset="0.322581" stop-color="#F70000"/><stop offset="0.33871" stop-color="#F60000"/><stop offset="0.354839" stop-color="#F50000"/><stop offset="0.370968" stop-color="#F50000"/><stop offset="0.387097" stop-color="#F40000"/><stop offset="0.403226" stop-color="#F30000"/><stop offset="0.419355" stop-color="#F20000"/><stop offset="0.435484" stop-color="#F10000"/><stop offset="0.451613" stop-color="#F00000"/><stop offset="0.467742" stop-color="#EF0000"/><stop offset="0.483871" stop-color="#EE0000"/><stop offset="0.5" stop-color="#ED0000"/><stop offset="0.516129" stop-color="#EC0000"/><stop offset="0.532258" stop-color="#EB0000"/><stop offset="0.548387" stop-color="#EA0000"/><stop offset="0.564516" stop-color="#E90000"/><stop offset="0.580645" stop-color="#E80000"/><stop offset="0.596774" stop-color="#E70000"/><stop offset="0.612903" stop-color="#E50000"/><stop offset="0.629032" stop-color="#E40000"/><stop offset="0.645161" stop-color="#E30000"/><stop offset="0.66129" stop-color="#E10000"/><stop offset="0.677419" stop-color="#E00000"/><stop offset="0.693548" stop-color="#DF0000"/><stop offset="0.709677" stop-color="#DD0000"/><stop offset="0.725806" stop-color="#DC0000"/><stop offset="0.741935" stop-color="#DB0000"/><stop offset="0.758065" stop-color="#D90000"/><stop offset="0.774194" stop-color="#D80000"/><stop offset="0.790323" stop-color="#D60000"/><stop offset="0.806452" stop-color="#D40000"/><stop offset="0.822581" stop-color="#D30000"/><stop offset="0.83871" stop-color="#D10000"/><stop offset="0.854839" stop-color="#D00000"/><stop offset="0.870968" stop-color="#CE0000"/><stop offset="0.887097" stop-color="#CC0000"/><stop offset="0.903226" stop-color="#CA0000"/><stop offset="0.919355" stop-color="#C90000"/><stop offset="0.935484" stop-color="#C70000"/><stop offset="0.951613" stop-color="#C50000"/><stop offset="0.967742" stop-color="#C30000"/><stop offset="0.983871" stop-color="#C10000"/><stop offset="1" stop-color="#C00000"/></linearGradient></defs><g clip-path="url(#clip0)" transform="translate(-277 -1020)"><path d="M277 1082.25C277 1047.87 304.871 1020 339.252 1020L647.748 1020C682.129 1020 710 1047.87 710 1082.25L710 1217.75C710 1252.13 682.129 1280 647.748 1280L339.252 1280C304.871 1280 277 1252.13 277 1217.75Z" fill="url(#fill1)" fill-rule="evenodd"/><path d="M349 1092 378.361 1092 407.887 1177.69 419.433 1146.55 399.804 1092.16 424.711 1092.16 436.917 1129.57 449.124 1092.16 474.196 1092.16 454.237 1146.55 466.113 1177.69 495.474 1092 525 1092 479.309 1209 455.887 1209 436.917 1163.19 418.113 1209 394.526 1209 349 1092Z" fill="#FFFFFF" fill-rule="evenodd"/><path d="M565.465 1092 594.699 1092 635 1209 607.252 1209 599.304 1182.8 560.699 1182.8 552.748 1209 525 1209 565.465 1092ZM580 1119.19 566.348 1164.18 593.654 1164.18 580 1119.19Z" fill="#FFFFFF" fill-rule="evenodd"/></g></svg>