<svg width="432" height="260" xmlns="http://www.w3.org/2000/svg" xmlns:xlink="http://www.w3.org/1999/xlink" overflow="hidden"><defs><clipPath id="clip0"><rect x="744" y="1733" width="432" height="260"/></clipPath><linearGradient x1="787" y1="1690" x2="1133" y2="2036" gradientUnits="userSpaceOnUse" spreadMethod="reflect" id="fill1"><stop offset="0" stop-color="#BFBFBF"/><stop offset="0.015873" stop-color="#BEBEBE"/><stop offset="0.031746" stop-color="#BEBEBE"/><stop offset="0.047619" stop-color="#BEBEBE"/><stop offset="0.0634921" stop-color="#BEBEBE"/><stop offset="0.0793651" stop-color="#BEBEBE"/><stop offset="0.0952381" stop-color="#BEBEBE"/><stop offset="0.111111" stop-color="#BDBDBD"/><stop offset="0.126984" stop-color="#BDBDBD"/><stop offset="0.142857" stop-color="#BDBDBD"/><stop offset="0.15873" stop-color="#BCBCBC"/><stop offset="0.174603" stop-color="#BCBCBC"/><stop offset="0.190476" stop-color="#BCBCBC"/><stop offset="0.206349" stop-color="#BBBBBB"/><stop offset="0.222222" stop-color="#BBBBBB"/><stop offset="0.238095" stop-color="#BABABA"/><stop offset="0.253968" stop-color="#BABABA"/><stop offset="0.269841" stop-color="#B9B9B9"/><stop offset="0.285714" stop-color="#B8B8B8"/><stop offset="0.301587" stop-color="#B8B8B8"/><stop offset="0.31746" stop-color="#B7B7B7"/><stop offset="0.333333" stop-color="#B6B6B6"/><stop offset="0.349206" stop-color="#B6B6B6"/><stop offset="0.365079" stop-color="#B5B5B5"/><stop offset="0.380952" stop-color="#B4B4B4"/><stop offset="0.396825" stop-color="#B3B3B3"/><stop offset="0.412698" stop-color="#B2B2B2"/><stop offset="0.428571" stop-color="#B1B1B1"/><stop offset="0.444444" stop-color="#B1B1B1"/><stop offset="0.460317" stop-color="#B0B0B0"/><stop offset="0.47619" stop-color="#AFAFAF"/><stop offset="0.492063" stop-color="#AEAEAE"/><stop offset="0.507937" stop-color="#ADADAD"/><stop offset="0.52381" stop-color="#ABABAB"/><stop offset="0.539683" stop-color="#AAAAAA"/><stop offset="0.555556" stop-color="#A9A9A9"/><stop offset="0.571429" stop-color="#A8A8A8"/><stop offset="0.587302" stop-color="#A7A7A7"/><stop offset="0.603175" stop-color="#A6A6A6"/><stop offset="0.619048" stop-color="#A4A4A4"/><stop offset="0.634921" stop-color="#A3A3A3"/><stop offset="0.650794" stop-color="#A2A2A2"/><stop offset="0.666667" stop-color="#A1A1A1"/><stop offset="0.68254" stop-color="#9F9F9F"/><stop offset="0.698413" stop-color="#9E9E9E"/><stop offset="0.714286" stop-color="#9C9C9C"/><stop offset="0.730159" stop-color="#9B9B9B"/><stop offset="0.746032" stop-color="#9A9A9A"/><stop offset="0.761905" stop-color="#989898"/><stop offset="0.777778" stop-color="#979797"/><stop offset="0.793651" stop-color="#959595"/><stop offset="0.809524" stop-color="#939393"/><stop offset="0.825397" stop-color="#929292"/><stop offset="0.84127" stop-color="#909090"/><stop offset="0.857143" stop-color="#8F8F8F"/><stop offset="0.873016" stop-color="#8D8D8D"/><stop offset="0.888889" stop-color="#8B8B8B"/><stop offset="0.904762" stop-color="#898989"/><stop offset="0.920635" stop-color="#888888"/><stop offset="0.936508" stop-color="#868686"/><stop offset="0.952381" stop-color="#848484"/><stop offset="0.968254" stop-color="#828282"/><stop offset="0.984127" stop-color="#808080"/><stop offset="1" stop-color="#7F7F7F"/></linearGradient></defs><g clip-path="url(#clip0)" transform="translate(-744 -1733)"><path d="M744 1795.25C744 1760.87 771.871 1733 806.252 1733L1113.75 1733C1148.13 1733 1176 1760.87 1176 1795.25L1176 1930.75C1176 1965.13 1148.13 1993 1113.75 1993L806.252 1993C771.871 1993 744 1965.13 744 1930.75Z" fill="url(#fill1)" fill-rule="evenodd"/><path d="M1046.92 1805 1079 1805 1079 1864.08C1079 1872.92 1078.48 1880.94 1077.44 1888.14 1076.4 1895.34 1074.28 1901.56 1071.1 1906.8 1067.92 1912.03 1063.15 1916.04 1056.79 1918.83 1050.43 1921.61 1041.93 1923 1031.29 1923 1026.24 1923 1021.63 1922.39 1017.47 1921.18 1013.3 1919.97 1009.46 1918.16 1005.95 1915.74L1012.7 1889.5C1013.35 1889.94 1015.44 1890.87 1018.95 1892.3 1022.46 1893.73 1026.57 1894.45 1031.29 1894.45 1034.69 1894.45 1037.43 1893.88 1039.51 1892.74 1041.6 1891.59 1043.16 1889.82 1044.2 1887.43 1045.24 1885.04 1045.96 1881.91 1046.34 1878.04 1046.72 1874.18 1046.92 1869.47 1046.92 1863.93ZM829 1805 863.715 1805 889.053 1884.88 897.115 1860.95 877.7 1805 907.151 1805 917.845 1841.14 928.704 1805 958.154 1805 938.411 1860.95 946.802 1884.88 971.975 1805 1006.85 1805 962.761 1922.17 934.956 1922.17 917.845 1880.26 900.899 1922.17 873.094 1922.17Z" fill="#FFFFFF" fill-rule="evenodd"/></g></svg>