<svg width="432" height="260" xmlns="http://www.w3.org/2000/svg" xmlns:xlink="http://www.w3.org/1999/xlink" overflow="hidden"><defs><clipPath id="clip0"><rect x="744" y="1733" width="432" height="260"/></clipPath><linearGradient x1="787" y1="1690" x2="1133" y2="2036" gradientUnits="userSpaceOnUse" spreadMethod="reflect" id="fill1"><stop offset="0" stop-color="#BFBFBF"/><stop offset="0.015873" stop-color="#BEBEBE"/><stop offset="0.031746" stop-color="#BEBEBE"/><stop offset="0.047619" stop-color="#BEBEBE"/><stop offset="0.0634921" stop-color="#BEBEBE"/><stop offset="0.0793651" stop-color="#BEBEBE"/><stop offset="0.0952381" stop-color="#BEBEBE"/><stop offset="0.111111" stop-color="#BDBDBD"/><stop offset="0.126984" stop-color="#BDBDBD"/><stop offset="0.142857" stop-color="#BDBDBD"/><stop offset="0.15873" stop-color="#BCBCBC"/><stop offset="0.174603" stop-color="#BCBCBC"/><stop offset="0.190476" stop-color="#BCBCBC"/><stop offset="0.206349" stop-color="#BBBBBB"/><stop offset="0.222222" stop-color="#BBBBBB"/><stop offset="0.238095" stop-color="#BABABA"/><stop offset="0.253968" stop-color="#BABABA"/><stop offset="0.269841" stop-color="#B9B9B9"/><stop offset="0.285714" stop-color="#B8B8B8"/><stop offset="0.301587" stop-color="#B8B8B8"/><stop offset="0.31746" stop-color="#B7B7B7"/><stop offset="0.333333" stop-color="#B6B6B6"/><stop offset="0.349206" stop-color="#B6B6B6"/><stop offset="0.365079" stop-color="#B5B5B5"/><stop offset="0.380952" stop-color="#B4B4B4"/><stop offset="0.396825" stop-color="#B3B3B3"/><stop offset="0.412698" stop-color="#B2B2B2"/><stop offset="0.428571" stop-color="#B1B1B1"/><stop offset="0.444444" stop-color="#B1B1B1"/><stop offset="0.460317" stop-color="#B0B0B0"/><stop offset="0.47619" stop-color="#AFAFAF"/><stop offset="0.492063" stop-color="#AEAEAE"/><stop offset="0.507937" stop-color="#ADADAD"/><stop offset="0.52381" stop-color="#ABABAB"/><stop offset="0.539683" stop-color="#AAAAAA"/><stop offset="0.555556" stop-color="#A9A9A9"/><stop offset="0.571429" stop-color="#A8A8A8"/><stop offset="0.587302" stop-color="#A7A7A7"/><stop offset="0.603175" stop-color="#A6A6A6"/><stop offset="0.619048" stop-color="#A4A4A4"/><stop offset="0.634921" stop-color="#A3A3A3"/><stop offset="0.650794" stop-color="#A2A2A2"/><stop offset="0.666667" stop-color="#A1A1A1"/><stop offset="0.68254" stop-color="#9F9F9F"/><stop offset="0.698413" stop-color="#9E9E9E"/><stop offset="0.714286" stop-color="#9C9C9C"/><stop offset="0.730159" stop-color="#9B9B9B"/><stop offset="0.746032" stop-color="#9A9A9A"/><stop offset="0.761905" stop-color="#989898"/><stop offset="0.777778" stop-color="#979797"/><stop offset="0.793651" stop-color="#959595"/><stop offset="0.809524" stop-color="#939393"/><stop offset="0.825397" stop-color="#929292"/><stop offset="0.84127" stop-color="#909090"/><stop offset="0.857143" stop-color="#8F8F8F"/><stop offset="0.873016" stop-color="#8D8D8D"/><stop offset="0.888889" stop-color="#8B8B8B"/><stop offset="0.904762" stop-color="#898989"/><stop offset="0.920635" stop-color="#888888"/><stop offset="0.936508" stop-color="#868686"/><stop offset="0.952381" stop-color="#848484"/><stop offset="0.968254" stop-color="#828282"/><stop offset="0.984127" stop-color="#808080"/><stop offset="1" stop-color="#7F7F7F"/></linearGradient></defs><g clip-path="url(#clip0)" transform="translate(-744 -1733)"><path d="M744 1795.25C744 1760.87 771.871 1733 806.252 1733L1113.75 1733C1148.13 1733 1176 1760.87 1176 1795.25L1176 1930.75C1176 1965.13 1148.13 1993 1113.75 1993L806.252 1993C771.871 1993 744 1965.13 744 1930.75Z" fill="url(#fill1)" fill-rule="evenodd"/><path d="M829 1805 858.528 1805 888.221 1890.69 899.833 1859.54 880.093 1805.16 905.142 1805.16 917.417 1842.57 929.693 1805.16 954.907 1805.16 934.835 1859.54 946.779 1890.69 976.307 1805 1006 1805 960.05 1922 936.494 1922 917.417 1876.19 898.506 1922 874.785 1922 829 1805Z" fill="#FFFFFF" fill-rule="evenodd"/><path d="M1049.92 1805 1077 1805 1077 1864.08C1077 1872.81 1076.5 1880.77 1075.51 1887.98 1074.52 1895.18 1072.51 1901.42 1069.49 1906.72 1066.46 1912.01 1061.92 1916.04 1055.87 1918.83 1049.81 1921.61 1041.72 1923 1031.59 1923 1026.42 1923 1021.74 1922.39 1017.56 1921.18 1013.38 1919.97 1009.52 1918.16 1006 1915.74L1011.94 1893.62C1013.05 1894.39 1015.38 1895.47 1018.96 1896.84 1022.54 1898.22 1026.75 1898.9 1031.59 1898.9 1035.45 1898.9 1038.61 1898.25 1041.09 1896.94 1043.56 1895.64 1045.44 1893.65 1046.7 1890.98 1047.97 1888.32 1048.82 1884.83 1049.26 1880.53 1049.7 1876.23 1049.92 1871.03 1049.92 1864.94L1049.92 1805Z" fill="#FFFFFF" fill-rule="evenodd"/></g></svg>