<svg width="432" height="260" xmlns="http://www.w3.org/2000/svg" xmlns:xlink="http://www.w3.org/1999/xlink" overflow="hidden"><defs><clipPath id="clip0"><rect x="744" y="1733" width="432" height="260"/></clipPath><linearGradient x1="787" y1="1690" x2="1133" y2="2036" gradientUnits="userSpaceOnUse" spreadMethod="reflect" id="fill1"><stop offset="0" stop-color="#BFBFBF"/><stop offset="0.015873" stop-color="#BEBEBE"/><stop offset="0.031746" stop-color="#BEBEBE"/><stop offset="0.047619" stop-color="#BEBEBE"/><stop offset="0.0634921" stop-color="#BEBEBE"/><stop offset="0.0793651" stop-color="#BEBEBE"/><stop offset="0.0952381" stop-color="#BEBEBE"/><stop offset="0.111111" stop-color="#BDBDBD"/><stop offset="0.126984" stop-color="#BDBDBD"/><stop offset="0.142857" stop-color="#BDBDBD"/><stop offset="0.15873" stop-color="#BCBCBC"/><stop offset="0.174603" stop-color="#BCBCBC"/><stop offset="0.190476" stop-color="#BCBCBC"/><stop offset="0.206349" stop-color="#BBBBBB"/><stop offset="0.222222" stop-color="#BBBBBB"/><stop offset="0.238095" stop-color="#BABABA"/><stop offset="0.253968" stop-color="#BABABA"/><stop offset="0.269841" stop-color="#B9B9B9"/><stop offset="0.285714" stop-color="#B8B8B8"/><stop offset="0.301587" stop-color="#B8B8B8"/><stop offset="0.31746" stop-color="#B7B7B7"/><stop offset="0.333333" stop-color="#B6B6B6"/><stop offset="0.349206" stop-color="#B6B6B6"/><stop offset="0.365079" stop-color="#B5B5B5"/><stop offset="0.380952" stop-color="#B4B4B4"/><stop offset="0.396825" stop-color="#B3B3B3"/><stop offset="0.412698" stop-color="#B2B2B2"/><stop offset="0.428571" stop-color="#B1B1B1"/><stop offset="0.444444" stop-color="#B1B1B1"/><stop offset="0.460317" stop-color="#B0B0B0"/><stop offset="0.47619" stop-color="#AFAFAF"/><stop offset="0.492063" stop-color="#AEAEAE"/><stop offset="0.507937" stop-color="#ADADAD"/><stop offset="0.52381" stop-color="#ABABAB"/><stop offset="0.539683" stop-color="#AAAAAA"/><stop offset="0.555556" stop-color="#A9A9A9"/><stop offset="0.571429" stop-color="#A8A8A8"/><stop offset="0.587302" stop-color="#A7A7A7"/><stop offset="0.603175" stop-color="#A6A6A6"/><stop offset="0.619048" stop-color="#A4A4A4"/><stop offset="0.634921" stop-color="#A3A3A3"/><stop offset="0.650794" stop-color="#A2A2A2"/><stop offset="0.666667" stop-color="#A1A1A1"/><stop offset="0.68254" stop-color="#9F9F9F"/><stop offset="0.698413" stop-color="#9E9E9E"/><stop offset="0.714286" stop-color="#9C9C9C"/><stop offset="0.730159" stop-color="#9B9B9B"/><stop offset="0.746032" stop-color="#9A9A9A"/><stop offset="0.761905" stop-color="#989898"/><stop offset="0.777778" stop-color="#979797"/><stop offset="0.793651" stop-color="#959595"/><stop offset="0.809524" stop-color="#939393"/><stop offset="0.825397" stop-color="#929292"/><stop offset="0.84127" stop-color="#909090"/><stop offset="0.857143" stop-color="#8F8F8F"/><stop offset="0.873016" stop-color="#8D8D8D"/><stop offset="0.888889" stop-color="#8B8B8B"/><stop offset="0.904762" stop-color="#898989"/><stop offset="0.920635" stop-color="#888888"/><stop offset="0.936508" stop-color="#868686"/><stop offset="0.952381" stop-color="#848484"/><stop offset="0.968254" stop-color="#828282"/><stop offset="0.984127" stop-color="#808080"/><stop offset="1" stop-color="#7F7F7F"/></linearGradient></defs><g clip-path="url(#clip0)" transform="translate(-744 -1733)"><path d="M744 1795.25C744 1760.87 771.871 1733 806.252 1733L1113.75 1733C1148.13 1733 1176 1760.87 1176 1795.25L1176 1930.75C1176 1965.13 1148.13 1993 1113.75 1993L806.252 1993C771.871 1993 744 1965.13 744 1930.75Z" fill="url(#fill1)" fill-rule="evenodd"/><path d="M819 1799 851.364 1799 883.909 1893.48 896.636 1859.14 875 1799.18 902.454 1799.18 915.909 1840.43 929.364 1799.18 957 1799.18 935 1859.14 948.091 1893.48 980.454 1799 1013 1799 962.636 1928 936.818 1928 915.909 1877.49 895.182 1928 869.182 1928 819 1799Z" fill="#FFFFFF" fill-rule="evenodd"/><path d="M1061.25 1799 1091 1799 1091 1864.09C1091 1873.71 1090.46 1882.48 1089.37 1890.42 1088.28 1898.35 1086.07 1905.23 1082.75 1911.06 1079.42 1916.89 1074.43 1921.34 1067.78 1924.4 1061.13 1927.47 1052.24 1929 1041.12 1929 1035.43 1929 1030.29 1928.33 1025.7 1927 1021.1 1925.67 1016.87 1923.67 1013 1921L1019.53 1896.64C1020.74 1897.48 1023.31 1898.67 1027.24 1900.18 1031.17 1901.7 1035.8 1902.45 1041.12 1902.45 1045.35 1902.45 1048.83 1901.74 1051.55 1900.3 1054.27 1898.86 1056.32 1896.67 1057.71 1893.73 1059.1 1890.79 1060.04 1886.95 1060.53 1882.21 1061.01 1877.48 1061.25 1871.75 1061.25 1865.03L1061.25 1799Z" fill="#FFFFFF" fill-rule="evenodd"/></g></svg>