<svg width="432" height="260" xmlns="http://www.w3.org/2000/svg" xmlns:xlink="http://www.w3.org/1999/xlink" overflow="hidden"><defs><clipPath id="clip0"><rect x="2818" y="1020" width="432" height="260"/></clipPath><linearGradient x1="2861" y1="977" x2="3207" y2="1323" gradientUnits="userSpaceOnUse" spreadMethod="reflect" id="fill1"><stop offset="0" stop-color="#A6A6A6"/><stop offset="0.0113636" stop-color="#A5A5A5"/><stop offset="0.0227273" stop-color="#A5A5A5"/><stop offset="0.0340909" stop-color="#A5A5A5"/><stop offset="0.0454545" stop-color="#A5A5A5"/><stop offset="0.0568182" stop-color="#A5A5A5"/><stop offset="0.0681818" stop-color="#A5A5A5"/><stop offset="0.0795455" stop-color="#A5A5A5"/><stop offset="0.0909091" stop-color="#A5A5A5"/><stop offset="0.102273" stop-color="#A5A4A5"/><stop offset="0.113636" stop-color="#A5A4A5"/><stop offset="0.125" stop-color="#A4A4A5"/><stop offset="0.136364" stop-color="#A4A3A5"/><stop offset="0.147727" stop-color="#A4A3A5"/><stop offset="0.159091" stop-color="#A4A3A4"/><stop offset="0.170455" stop-color="#A3A2A4"/><stop offset="0.181818" stop-color="#A3A2A4"/><stop offset="0.193182" stop-color="#A3A1A4"/><stop offset="0.204545" stop-color="#A3A1A4"/><stop offset="0.215909" stop-color="#A2A0A4"/><stop offset="0.227273" stop-color="#A2A0A3"/><stop offset="0.238636" stop-color="#A29FA3"/><stop offset="0.25" stop-color="#A19FA3"/><stop offset="0.261364" stop-color="#A19EA3"/><stop offset="0.272727" stop-color="#A09EA2"/><stop offset="0.284091" stop-color="#A09DA2"/><stop offset="0.295455" stop-color="#A09CA2"/><stop offset="0.306818" stop-color="#9F9CA2"/><stop offset="0.318182" stop-color="#9F9BA1"/><stop offset="0.329545" stop-color="#9E9AA1"/><stop offset="0.340909" stop-color="#9E9AA1"/><stop offset="0.352273" stop-color="#9D99A1"/><stop offset="0.363636" stop-color="#9D98A0"/><stop offset="0.375" stop-color="#9C97A0"/><stop offset="0.386364" stop-color="#9C97A0"/><stop offset="0.397727" stop-color="#9B969F"/><stop offset="0.409091" stop-color="#9B959F"/><stop offset="0.420455" stop-color="#9A949F"/><stop offset="0.431818" stop-color="#99939E"/><stop offset="0.443182" stop-color="#99929E"/><stop offset="0.454545" stop-color="#98919E"/><stop offset="0.465909" stop-color="#98909D"/><stop offset="0.477273" stop-color="#978F9D"/><stop offset="0.488636" stop-color="#968E9C"/><stop offset="0.5" stop-color="#968D9C"/><stop offset="0.511364" stop-color="#958C9C"/><stop offset="0.522727" stop-color="#948B9B"/><stop offset="0.534091" stop-color="#948A9B"/><stop offset="0.545455" stop-color="#93899A"/><stop offset="0.556818" stop-color="#92889A"/><stop offset="0.568182" stop-color="#918799"/><stop offset="0.579545" stop-color="#918599"/><stop offset="0.590909" stop-color="#908498"/><stop offset="0.602273" stop-color="#8F8398"/><stop offset="0.613636" stop-color="#8E8297"/><stop offset="0.625" stop-color="#8D8197"/><stop offset="0.636364" stop-color="#8D7F97"/><stop offset="0.647727" stop-color="#8C7E96"/><stop offset="0.659091" stop-color="#8B7D95"/><stop offset="0.670455" stop-color="#8A7B95"/><stop offset="0.681818" stop-color="#897A94"/><stop offset="0.693182" stop-color="#887994"/><stop offset="0.704545" stop-color="#877793"/><stop offset="0.715909" stop-color="#877693"/><stop offset="0.727273" stop-color="#867592"/><stop offset="0.738636" stop-color="#857392"/><stop offset="0.75" stop-color="#847291"/><stop offset="0.761364" stop-color="#837091"/><stop offset="0.772727" stop-color="#826F90"/><stop offset="0.784091" stop-color="#816D8F"/><stop offset="0.795455" stop-color="#806C8F"/><stop offset="0.806818" stop-color="#7F6A8E"/><stop offset="0.818182" stop-color="#7E688D"/><stop offset="0.829545" stop-color="#7D678D"/><stop offset="0.840909" stop-color="#7C658C"/><stop offset="0.852273" stop-color="#7B648C"/><stop offset="0.863636" stop-color="#79628B"/><stop offset="0.875" stop-color="#78608A"/><stop offset="0.886364" stop-color="#775F8A"/><stop offset="0.897727" stop-color="#765D89"/><stop offset="0.909091" stop-color="#755B88"/><stop offset="0.920455" stop-color="#745988"/><stop offset="0.931818" stop-color="#735887"/><stop offset="0.943182" stop-color="#725686"/><stop offset="0.954545" stop-color="#705485"/><stop offset="0.965909" stop-color="#6F5285"/><stop offset="0.977273" stop-color="#6E5084"/><stop offset="0.988636" stop-color="#6D4E83"/><stop offset="1" stop-color="#6C4D83"/></linearGradient></defs><g clip-path="url(#clip0)" transform="translate(-2818 -1020)"><path d="M2818 1082.25C2818 1047.87 2845.87 1020 2880.25 1020L3187.75 1020C3222.13 1020 3250 1047.87 3250 1082.25L3250 1217.75C3250 1252.13 3222.13 1280 3187.75 1280L2880.25 1280C2845.87 1280 2818 1252.13 2818 1217.75Z" fill="url(#fill1)" fill-rule="evenodd"/><path d="M3067.99 1122.71C3063.85 1122.71 3060.27 1123.5 3057.27 1125.09 3054.26 1126.67 3051.77 1128.78 3049.8 1131.4 3047.83 1134.03 3046.37 1137 3045.44 1140.32 3044.5 1143.64 3044.03 1147.03 3044.03 1150.5 3044.03 1154.07 3044.53 1157.51 3045.51 1160.83 3046.5 1164.15 3047.98 1167.12 3049.95 1169.74 3051.92 1172.37 3054.41 1174.45 3057.41 1175.99 3060.42 1177.52 3063.99 1178.29 3068.13 1178.29 3072.27 1178.29 3075.87 1177.5 3078.93 1175.91 3081.98 1174.33 3084.47 1172.17 3086.39 1169.45 3088.32 1166.72 3089.75 1163.7 3090.68 1160.38 3091.62 1157.06 3092.09 1153.67 3092.09 1150.2 3092.09 1146.64 3091.59 1143.22 3090.61 1139.95 3089.62 1136.68 3088.14 1133.73 3086.17 1131.11 3084.2 1128.48 3081.69 1126.42 3078.63 1124.94 3075.58 1123.45 3072.03 1122.71 3067.99 1122.71ZM3133.99 1097.74 3206 1097.74 3206 1123.01 3162.83 1123.01 3162.83 1140.54 3198.02 1140.54 3198.02 1164.02 3162.83 1164.02 3162.83 1203.26 3133.99 1203.26ZM2855 1097.74 2886.2 1097.74 2908.97 1169.67 2916.21 1148.12 2898.77 1097.74 2925.23 1097.74 2934.84 1130.29 2944.6 1097.74 2971.07 1097.74 2953.32 1148.12 2960.86 1169.67 2983.49 1097.74 3014.83 1097.74 2975.21 1203.26 2950.22 1203.26 2934.84 1165.51 2919.61 1203.26 2894.62 1203.26ZM3068.43 1097C3076.41 1097 3083.66 1098.51 3090.16 1101.53 3096.67 1104.55 3102.24 1108.64 3106.87 1113.79 3111.5 1118.94 3115.08 1124.72 3117.59 1131.11 3120.11 1137.5 3121.36 1144.06 3121.36 1150.8 3121.36 1157.73 3120.06 1164.37 3117.44 1170.71 3114.83 1177.05 3111.14 1182.72 3106.35 1187.73 3101.57 1192.73 3095.93 1196.69 3089.43 1199.62 3082.92 1202.54 3075.72 1204 3067.84 1204 3059.85 1204 3052.61 1202.49 3046.1 1199.47 3039.6 1196.45 3034 1192.38 3029.32 1187.28 3024.64 1182.18 3021.04 1176.43 3018.53 1170.04 3016.02 1163.65 3014.76 1157.04 3014.76 1150.2 3014.76 1143.17 3016.09 1136.48 3018.75 1130.14 3021.41 1123.8 3025.13 1118.13 3029.91 1113.12 3034.69 1108.12 3040.36 1104.18 3046.92 1101.31 3053.47 1098.44 3060.64 1097 3068.43 1097Z" fill="#FFFFFF" fill-rule="evenodd"/></g></svg>